<svg width="226" height="71" viewBox="0 0 226 71" fill="none" xmlns="http://www.w3.org/2000/svg">
<path d="M15.8347 59.2958C15.947 59.2958 16.0593 59.2958 16.0593 59.2958C16.1716 59.2958 16.1716 59.4081 16.1716 59.5204C16.1716 59.6327 16.1716 59.745 16.1716 59.8573C16.1716 60.0819 16.1716 60.1942 16.0593 60.3065C16.0593 60.4188 16.0593 60.5311 16.0593 60.5311C16.0593 60.6434 15.947 60.7557 15.947 60.868C15.8347 60.9803 15.8347 61.0926 15.7224 61.0926C15.6101 61.2049 15.4978 61.2049 15.4978 61.3172C15.3855 61.3172 15.3855 61.4295 15.3855 61.4295C15.2732 61.4295 15.2732 61.4295 15.1609 61.4295C15.0486 61.4295 15.0486 61.4295 14.9363 61.4295C14.824 61.4295 14.824 61.3172 14.824 61.2049C14.7117 61.0926 14.7117 60.9803 14.7117 60.868C14.7117 60.7557 14.7117 60.5311 14.9363 60.3065C15.0486 60.0819 15.1609 59.9696 15.3855 59.8573C15.4978 59.745 15.4978 59.6327 15.6101 59.5204C15.6101 59.5204 15.7224 59.4081 15.8347 59.4081C15.6101 59.2958 15.7224 59.2958 15.8347 59.2958Z" fill="white"/>
<path d="M39.643 55.9267C39.7553 55.9267 39.8677 55.9267 39.8677 55.9267C39.8677 55.9267 39.98 56.039 39.98 56.1513C39.98 56.2636 39.98 56.3759 39.98 56.4882C39.98 56.7128 39.98 56.8251 39.8677 56.9374C39.8677 57.0497 39.8677 57.162 39.8677 57.162C39.8677 57.2743 39.7553 57.3866 39.7553 57.4989C39.643 57.6112 39.643 57.7236 39.5307 57.7236C39.4184 57.8359 39.3061 57.8359 39.3061 57.9482C39.1938 57.9482 39.1938 58.0605 39.1938 58.0605C39.0815 58.0605 39.0815 58.0605 38.9692 58.0605C38.8569 58.0605 38.8569 58.0605 38.7446 58.0605C38.6323 58.0605 38.6323 57.9482 38.52 57.8359C38.52 57.7236 38.4077 57.6112 38.4077 57.4989C38.4077 57.3866 38.4077 57.162 38.6323 56.9374C38.7446 56.7128 38.8569 56.6005 39.0815 56.4882C39.1938 56.3759 39.1938 56.2636 39.3061 56.1513C39.3061 56.1513 39.4184 56.039 39.5307 56.039C39.4184 56.039 39.5307 55.9267 39.643 55.9267Z" fill="white"/>
<path d="M47.9534 59.9696C47.7288 59.8573 47.2796 60.4188 47.055 60.6434C46.9427 60.7557 46.9427 60.7557 46.8304 60.868C46.8304 60.9803 46.7181 60.9803 46.7181 61.0926C46.6058 61.2049 46.6057 61.2049 46.4934 61.2049L46.3811 61.3172C46.2688 61.3172 46.0442 61.2049 45.8196 60.9803C45.595 60.7557 45.4827 60.5311 45.3704 60.4188C45.3704 60.1942 45.4827 59.8573 45.8196 59.2958C46.1565 58.7342 46.2688 58.1727 46.2688 57.8358C46.2688 57.7235 46.1565 57.6112 46.1565 57.4989C46.1565 57.3866 46.0442 57.3866 45.9319 57.3866C45.9319 57.3866 45.8196 57.4989 45.7073 57.6112C45.595 57.7235 45.4827 57.9481 45.4827 58.1727C45.2581 58.6219 45.1458 59.0712 45.0335 59.2958C44.9212 59.5204 44.8089 59.745 44.8089 59.745C44.472 59.8573 44.3597 59.9696 44.2474 60.0819C44.1351 60.1942 44.1351 60.4188 44.1351 60.7557V60.9803C44.0228 61.2049 44.0228 61.4295 43.9105 61.5418C43.7982 61.7664 43.7982 61.8787 43.6859 61.991C43.6859 62.1033 43.6859 62.1033 43.5736 62.1033C43.5736 62.1033 43.4613 62.1033 43.4613 62.2156C43.4613 62.2156 43.4613 62.2156 43.4613 62.1033C43.4613 62.1033 43.4613 61.991 43.4613 61.7664C43.4613 61.6541 43.4613 61.4295 43.5736 61.2049C43.5736 60.9803 43.6859 60.6434 43.6859 60.4188C43.6859 60.1942 43.7982 59.8573 43.7982 59.6327C43.7982 59.2958 43.9105 58.9588 44.0228 58.7342C44.1351 58.5096 44.1351 58.285 44.2474 58.0604C44.5843 57.162 44.8089 56.4882 44.9212 55.9267C45.0335 55.3652 45.0335 54.9159 45.0335 54.579C45.0335 54.2421 44.9212 54.1298 44.8089 53.9052C44.6966 53.7929 44.5843 53.6806 44.3597 53.7929H44.2474L44.1351 53.9052C44.0228 54.1298 44.0228 54.2421 43.9105 54.4667C43.7982 54.6913 43.7982 54.9159 43.7982 55.1405C43.7982 55.2529 43.7982 55.2528 43.7982 55.3652C43.7982 55.4775 43.7982 55.4775 43.6859 55.4775C43.6859 55.5898 43.5736 55.7021 43.5736 55.9267C43.4613 56.1513 43.4613 56.4882 43.349 56.8251C43.2367 57.2743 43.2367 57.4989 43.1244 57.8358C43.1244 58.0604 43.0121 58.285 43.0121 58.3973C42.8997 58.5096 42.8998 58.7342 42.7874 58.9589C42.6751 59.1835 42.5628 59.4081 42.5628 59.745C42.4505 59.9696 42.4505 60.1942 42.3382 60.3065C42.2259 60.5311 42.1136 60.6434 42.0013 60.7557C41.889 60.868 41.889 60.868 41.889 60.9803C41.889 61.0926 41.7767 61.0926 41.7767 61.0926C41.7767 61.2049 41.7767 61.2049 41.7767 61.2049C41.7767 61.2049 41.5521 61.4295 41.5521 61.5418C41.4398 61.6541 41.4398 61.6541 41.3275 61.7664C41.2152 61.8787 41.2152 61.8787 41.1029 61.991C40.9906 61.991 40.8783 62.1033 40.8783 62.1033C40.766 62.1033 40.766 62.1033 40.6537 62.1033C40.6537 62.1033 40.5414 62.1033 40.5414 61.991C40.5414 61.991 40.4291 61.8787 40.4291 61.6541C40.3168 61.4295 40.3168 61.3172 40.2045 61.2049C40.2045 61.0926 40.0922 60.868 40.0922 60.7557C40.0922 60.6434 39.9799 60.4188 39.9799 60.3065C39.8676 60.1942 39.8676 60.0819 39.7553 59.9696C39.643 59.8573 39.5307 59.8573 39.3061 59.8573C39.1938 59.8573 39.1937 59.8573 39.0814 59.9696C38.9691 59.9696 38.9691 60.0819 38.9691 60.1942C38.8568 60.4188 38.6322 60.6434 38.4076 60.9803C38.183 61.3172 37.9584 61.5418 37.8461 61.7664V61.8787C37.8461 61.8787 37.7338 61.991 37.7338 62.1033H37.6215C37.5092 62.1033 37.5092 62.1033 37.3969 61.991C37.2846 61.8787 37.2846 61.8787 37.1723 61.6541C37.06 61.4295 36.9477 61.2049 36.8354 60.868C36.7231 60.7557 36.6108 60.6434 36.4985 60.5311C36.3862 60.4188 36.2739 60.4188 36.0493 60.5311C35.937 60.5311 35.937 60.5311 35.8247 60.6434C35.7124 60.6434 35.6001 60.7557 35.4878 60.868C35.3754 60.9803 35.2631 60.9803 35.2631 61.0926C35.1508 61.2049 35.1508 61.2049 35.0385 61.3172C35.0385 61.4295 34.9262 61.4295 34.9262 61.4295C34.9262 61.4295 34.9262 61.5418 34.8139 61.5418C34.7016 61.6541 34.7016 61.6541 34.5893 61.7664C34.5893 61.8787 34.477 61.991 34.477 61.991C34.3647 62.1033 34.2524 62.2156 34.2524 62.3279C34.1401 62.4402 34.1401 62.5525 34.1401 62.5525C34.1401 62.5525 34.1401 62.6648 34.0278 62.6648C34.0278 62.6648 34.0278 62.6649 34.0278 62.7772L33.9155 62.6648V62.5525C33.9155 62.5525 33.9155 62.4402 33.9155 62.3279C33.9155 62.2156 33.9155 62.1033 34.0278 61.991C34.1401 61.4295 34.2524 61.0926 34.2524 60.7557C34.2524 60.4188 34.2524 60.1942 34.2524 60.0819C34.2524 59.8573 34.1401 59.745 34.0278 59.6327C33.9155 59.5204 33.8032 59.5204 33.5786 59.5204C33.354 59.5204 33.2417 59.6327 33.1294 59.745C33.0171 59.8573 32.9048 59.9696 32.7925 60.1942C32.6802 60.4188 32.5679 60.5311 32.4556 60.7557C32.3433 60.868 32.231 60.9803 32.231 61.0926C32.1187 61.3172 32.0064 61.5418 31.8941 61.6541C31.7818 61.7664 31.6694 61.991 31.6694 62.1033C31.5571 62.2156 31.5571 62.3279 31.4448 62.4402C31.3325 62.5525 31.3325 62.5525 31.3325 62.6648C31.3325 62.7772 31.2202 62.7772 31.2202 62.7772C31.2202 62.7772 31.2202 62.8895 31.1079 62.8895C30.9956 62.8895 30.9956 63.0018 30.9956 63.0018C30.9956 63.1141 30.8833 63.1141 30.8833 63.2264C30.771 63.3387 30.771 63.3387 30.6587 63.451L30.5464 63.5633C30.4341 63.5633 30.2095 63.451 29.9849 63.2264C29.7603 63.0018 29.648 62.7772 29.5357 62.6648C29.5357 62.4402 29.648 62.1033 29.9849 61.5418C30.3218 60.9803 30.4341 60.4188 30.4341 60.0819C30.4341 59.9696 30.3218 59.8573 30.3218 59.745C30.2095 59.6327 30.2095 59.6327 30.0972 59.6327C30.0972 59.6327 29.9849 59.745 29.8726 59.8573C29.7603 59.9696 29.648 60.1942 29.648 60.4188C29.4234 60.9803 29.3111 61.3172 29.1988 61.5418C29.0865 61.7664 28.9742 61.991 28.9742 61.991C28.6373 62.1033 28.525 62.2156 28.4127 62.3279C28.3004 62.4402 28.3004 62.6649 28.3004 63.0018V63.2264C28.1881 63.451 28.1881 63.6756 28.0758 63.7879C27.9634 64.0125 27.9634 64.1248 27.8511 64.2371C27.8511 64.2371 27.8511 64.3494 27.7388 64.3494C27.7388 64.3494 27.6265 64.3494 27.6265 64.4617C27.6265 64.4617 27.6265 64.4617 27.6265 64.3494C27.6265 64.3494 27.6265 64.2371 27.6265 64.0125C27.6265 63.9002 27.6265 63.6756 27.7388 63.451C27.7388 63.2264 27.8511 62.8895 27.8511 62.6648C27.8511 62.4402 27.9635 62.1033 27.9635 61.8787C27.9635 61.5418 28.0758 61.2049 28.1881 60.9803C28.3004 60.7557 28.3004 60.5311 28.4127 60.3065C28.7496 59.4081 28.9742 58.7342 29.0865 58.1727C29.1988 57.6112 29.1988 57.162 29.1988 56.8251C29.1988 56.6005 29.0865 56.3759 28.9742 56.2636C28.8619 56.1513 28.7496 56.039 28.525 56.1513H28.4127C28.4127 56.1513 28.4127 56.2636 28.3004 56.2636C28.1881 56.4882 28.1881 56.6005 28.0758 56.8251C27.9634 57.0497 27.9635 57.2743 27.9635 57.4989C27.9635 57.6112 27.9635 57.6112 27.9635 57.7235C27.9635 57.7235 27.9634 57.8358 27.8511 57.8358C27.8511 57.9481 27.7388 58.0604 27.7388 58.285C27.6265 58.5096 27.6265 58.8465 27.5142 59.1835C27.4019 59.6327 27.4019 59.8573 27.2896 60.1942C27.2896 60.4188 27.1773 60.6434 27.1773 60.7557C27.065 60.868 27.065 61.0926 26.9527 61.3172C26.8404 61.5418 26.7281 61.7664 26.7281 62.1033C26.6158 62.3279 26.6158 62.5525 26.5035 62.6648C26.3912 62.8895 26.2789 63.0018 26.1666 63.1141C26.0543 63.2264 26.0543 63.2264 26.0543 63.3387C26.0543 63.451 25.942 63.451 25.942 63.451C25.942 63.5633 25.942 63.5633 25.942 63.5633C25.942 63.5633 25.942 63.5633 25.942 63.6756L25.8297 63.7879L25.7174 63.9002C25.6051 64.0125 25.4928 64.0125 25.3805 64.1248C25.2682 64.2371 25.0436 64.2371 24.9313 64.2371C24.819 64.2371 24.7067 64.2371 24.5944 64.2371C24.4821 64.2371 24.4821 64.2371 24.3698 64.1248C24.2575 64.1248 24.2574 64.0125 24.1451 64.0125C24.1451 63.9002 24.0328 63.9002 24.0328 63.7879C24.0328 63.6756 24.0328 63.6756 24.0328 63.5633C24.0328 63.5633 24.0328 63.451 24.1451 63.451C24.4821 63.0018 24.7067 62.6649 24.9313 62.3279C25.1559 61.991 25.2682 61.7664 25.2682 61.4295V61.2049C25.2682 61.0926 25.2682 60.9803 25.2682 60.9803C25.2682 60.868 25.2682 60.868 25.2682 60.9803C25.2682 60.868 25.1559 60.7557 25.1559 60.6434C25.1559 60.5311 25.0436 60.4188 25.0436 60.4188C25.0436 60.3065 24.9313 60.3065 24.9313 60.3065C24.9313 60.3065 24.819 60.1942 24.7067 60.1942C24.5944 60.1942 24.4821 60.1942 24.3698 60.1942C24.2575 60.1942 24.2574 60.1942 24.1451 60.3065C24.0328 60.3065 24.0328 60.4188 23.9205 60.4188C23.8082 60.5311 23.8082 60.5311 23.6959 60.5311L23.5836 60.6434C23.4713 60.7557 23.359 60.9803 23.359 61.0926C23.2467 61.2049 23.1344 61.4295 23.1344 61.5418C23.0221 61.7664 23.0221 61.8787 22.9098 62.1033C22.9098 62.2156 22.7975 62.4402 22.7975 62.5525C22.7975 62.6648 22.7975 62.7772 22.6852 62.8895C22.6852 63.0018 22.6852 63.1141 22.6852 63.1141C22.6852 63.2264 22.6852 63.3387 22.6852 63.3387V63.6756C22.5729 63.7879 22.4606 63.9002 22.3483 64.0125C22.236 64.1248 22.236 64.2371 22.1237 64.3494C21.8991 64.6863 21.6745 64.9109 21.4499 65.0232C21.3376 65.1355 21.2253 65.2478 21.2253 65.2478H21.113V65.1355C21.113 65.0232 21.113 64.9109 21.113 64.6863C21.113 64.4617 21.113 64.1248 21.113 63.6756C21.2253 63.1141 21.2253 62.6649 21.2253 62.3279C21.2253 61.991 21.3376 61.6541 21.3376 61.4295C21.3376 61.3172 21.3376 61.2049 21.3376 61.2049C21.3376 61.0926 21.3376 61.0926 21.3376 60.9803L21.7868 60.868C21.7868 60.868 21.8991 60.7557 21.8991 60.6434C21.8991 60.5311 21.8991 60.3065 21.7868 59.9696C21.7868 59.8573 21.7868 59.8573 21.7868 59.745C21.7868 59.745 21.7868 59.6327 21.6745 59.6327C21.6745 59.6327 21.5622 59.6327 21.5622 59.5204C21.5622 59.4081 21.5622 59.2958 21.6745 59.0712C21.6745 58.8465 21.6745 58.7342 21.6745 58.6219C21.6745 58.5096 21.5622 58.3973 21.5622 58.285C21.4499 58.1727 21.4499 58.1727 21.3376 58.1727C21.113 58.1727 21.0007 58.3973 20.7761 58.9589C20.6638 59.4081 20.5515 59.6327 20.3268 59.745H20.1022C19.9899 59.745 19.9899 59.745 19.8776 59.8573C19.7653 59.8573 19.7653 59.8573 19.653 59.9696C19.653 59.9696 19.5407 59.9696 19.4284 59.9696C19.3161 59.9696 19.2038 59.9696 19.0915 59.9696C18.9792 59.9696 18.9792 59.9696 18.8669 60.0819C18.7546 60.0819 18.6423 60.0819 18.53 60.0819C18.4177 60.0819 18.3054 60.0819 18.1931 60.0819C18.0808 60.0819 17.9685 60.1942 17.9685 60.4188C17.9685 60.5311 17.9685 60.868 17.9685 61.0926C17.9685 61.0926 17.9685 61.2049 18.0808 61.2049C18.0808 61.2049 18.1931 61.2049 18.1931 61.3172H18.3054H18.4177C18.4177 61.3172 18.53 61.3172 18.6423 61.3172C18.7546 61.3172 18.7546 61.3172 18.8669 61.3172L19.7653 61.2049H19.8776C19.9899 61.2049 19.9899 61.2049 19.9899 61.2049C19.9899 61.2049 19.9899 61.2049 20.1022 61.2049C20.1022 61.2049 20.1022 61.2049 20.1022 61.3172C20.1022 61.4295 19.9899 61.5418 19.9899 61.6541C19.9899 61.7664 19.8776 61.7664 19.8776 61.8787C19.653 62.4402 19.4284 63.0018 19.0915 63.451C18.8669 63.9002 18.53 64.3494 18.3054 64.6863C18.3054 64.7986 18.1931 64.7986 18.1931 64.9109C18.1931 65.0232 18.0808 65.0232 18.0808 65.0232V65.1355C17.9685 65.2478 17.9685 65.2478 17.8562 65.3601C17.7439 65.4724 17.7439 65.4724 17.6316 65.5847C17.5193 65.697 17.407 65.697 17.407 65.8093C17.2947 65.8093 17.2947 65.9216 17.1824 65.9216C17.0701 65.9216 17.0701 65.9216 16.9578 65.9216C16.9578 65.9216 16.8455 65.9216 16.8455 65.8093C16.8455 65.8093 16.7331 65.697 16.7331 65.4724C16.6208 65.2478 16.6208 65.1355 16.5085 65.0232C16.5085 64.9109 16.3962 64.6863 16.3962 64.574C16.3962 64.4617 16.2839 64.2371 16.2839 64.1248C16.1716 64.0125 16.1716 63.9002 15.947 63.7879C15.8347 63.6756 15.7224 63.6756 15.4978 63.6756C15.3855 63.6756 15.3855 63.6756 15.2732 63.7879C15.2732 63.7879 15.1609 63.9002 15.1609 64.0125C15.0486 64.2371 14.824 64.4617 14.5994 64.7986C14.3748 65.1355 14.1502 65.3601 14.0379 65.5847V65.697C13.9256 65.8093 13.8133 65.9216 13.8133 65.9216C13.701 66.0339 13.701 66.0339 13.5887 66.1462C13.3641 66.2586 13.2518 66.3709 13.1395 66.3709C13.0271 66.3709 12.9148 66.4832 12.9148 66.4832C12.5779 66.4832 12.241 66.4832 12.0164 66.2585C11.7918 66.0339 11.6795 65.697 11.5672 65.2478C11.6795 65.0232 11.7918 64.6863 11.9041 64.4617C12.0164 64.2371 12.0164 64.1248 12.1287 64.0125C12.241 63.9002 12.241 63.7879 12.241 63.6756C12.241 63.5633 12.241 63.451 12.3533 63.451C12.3533 63.3387 12.3533 63.3387 12.4656 63.2264C12.4656 63.1141 12.5779 63.0018 12.5779 63.0018C12.5779 62.8895 12.6902 62.8895 12.6902 62.7772C12.6902 62.6649 12.8025 62.5525 12.8025 62.4402C12.8025 62.3279 12.8025 62.3279 12.8025 62.2156C12.8025 62.1033 12.9148 61.991 12.9148 61.991C12.9148 61.8787 13.0272 61.8787 13.0272 61.7664C13.0272 61.5418 13.1395 61.4295 13.1395 61.2049C13.1395 61.0926 13.1395 60.868 13.2518 60.7557C13.2518 60.6434 13.3641 60.5311 13.3641 60.4188C13.3641 60.3065 13.3641 60.1942 13.3641 60.1942V60.0819V59.9696C13.3641 59.8573 13.3641 59.745 13.3641 59.5204C13.3641 59.4081 13.3641 59.2958 13.3641 59.1835C13.3641 59.0712 13.3641 58.9589 13.3641 58.8466C13.3641 58.7342 13.3641 58.6219 13.3641 58.5096C13.3641 58.1727 13.2518 58.0604 13.1395 57.9481C12.6902 57.3866 12.4656 57.3866 12.241 57.3866C12.1287 57.3866 12.0164 57.4989 11.7918 57.7235C11.6795 57.9481 11.4549 58.285 11.3426 58.6219C11.2303 58.9589 11.118 59.1835 11.0057 59.5204C10.8934 59.8573 10.8934 60.0819 10.7811 60.3065C10.7811 60.4188 10.6688 60.6434 10.6688 60.7557C10.6688 60.868 10.5565 60.9803 10.5565 61.0926C10.4442 61.5418 10.4442 61.991 10.3319 62.3279C10.2196 62.6649 10.2196 63.1141 10.2196 63.451L10.3319 63.5633C10.3319 63.6756 10.3319 63.7879 10.3319 64.0125C10.3319 64.2371 10.3319 64.4617 10.3319 64.574V64.6863V64.7986L9.88266 65.2478C9.77036 65.3601 9.77036 65.3601 9.77036 65.4724C9.77036 65.5847 9.65806 65.5847 9.65806 65.697L9.54576 65.8093H9.43345H9.32115L9.20885 65.697C9.20885 65.697 9.32115 65.5847 9.32115 65.4724C9.32115 65.3601 9.43345 65.2478 9.43345 65.1355C9.43345 65.0232 9.43345 64.9109 9.43345 64.7986C9.43345 64.6863 9.43345 64.574 9.43345 64.4617C9.32115 64.0125 9.20885 63.7879 9.09655 63.5633C8.87194 63.3387 8.64733 63.3387 8.31042 63.3387C8.31042 63.3387 8.19812 63.3387 8.08582 63.451C7.97351 63.5633 7.86121 63.5633 7.6366 63.6756V63.5633C7.6366 63.451 7.74891 63.3387 7.74891 63.2264C7.74891 63.2264 7.74891 63.1141 7.6366 63.1141C7.6366 63.1141 7.5243 63.1141 7.412 63.1141C7.2997 63.1141 7.18739 63.1141 7.18739 63.2264C7.07509 63.2264 7.07509 63.3387 6.96279 63.451C6.96279 63.5633 6.85049 63.5633 6.85049 63.6756C6.85049 63.7879 6.73818 63.7879 6.62588 63.9002C6.62588 64.0125 6.51357 64.0125 6.51357 64.1248C6.40127 64.2371 6.40127 64.2371 6.28897 64.3494C6.17667 64.4617 6.17667 64.4617 6.06436 64.574C6.06436 64.6863 5.95206 64.6863 5.95206 64.7986C5.95206 64.7986 5.95206 64.7986 5.83976 64.9109C5.83976 64.7986 5.83976 64.7986 5.95206 64.6863C6.06436 64.3494 6.06436 63.9002 5.95206 63.3387C5.95206 63.0018 5.83976 62.7772 5.72746 62.5525C5.61515 62.3279 5.50285 62.1033 5.39054 61.8787C5.27824 61.6541 5.16594 61.5418 4.94133 61.3172C4.71673 61.0926 4.60442 60.9803 4.37982 60.7557L4.26751 60.6434C4.26751 60.6434 4.15521 60.6434 4.15521 60.5311C4.04291 60.4188 3.8183 60.3065 3.706 60.3065C3.5937 60.1942 3.5937 60.1942 3.4814 60.1942C3.25679 60.0819 3.03218 59.9696 3.03218 59.8573C2.91988 59.745 2.69527 59.6327 2.24606 59.5204C2.13376 59.5204 2.02145 59.4081 1.79685 59.4081C1.68455 59.4081 1.57224 59.2958 1.34764 59.2958H1.12303C1.12303 59.2958 1.01073 59.1835 0.898425 59.1835C0.786122 59.1835 0.561516 59.4081 0.33691 59.745C0.112304 60.0819 0 60.3065 0 60.4188C0 60.4188 4.26729e-07 60.5311 0.112303 60.5311C0.224606 60.6434 0.224608 60.7557 0.449214 60.868C0.561517 60.9803 0.673819 61.2049 0.786122 61.2049C0.898425 61.3172 0.898426 61.4295 1.01073 61.4295L0.898425 63.6756L1.01073 63.9002C1.01073 64.0125 1.01073 64.2371 1.01073 64.3494C1.01073 64.4617 1.01073 64.574 1.01073 64.6863C1.01073 64.9109 1.01073 65.1355 1.01073 65.3601C1.01073 65.4724 1.01073 65.5847 1.01073 65.5847C1.01073 65.9216 1.01073 66.1462 1.01073 66.3709C1.01073 66.3709 1.01073 66.4831 1.12303 66.5955C1.12303 66.7078 1.12303 66.7078 1.23533 66.8201C1.23533 67.0447 1.12303 67.157 1.01073 67.2693C0.786123 67.3816 0.673818 67.4939 0.673818 67.6062C0.673818 67.6062 0.673819 67.7185 0.786122 67.7185C0.786122 67.7185 0.898426 67.8308 1.01073 67.8308C1.12303 67.8308 1.12303 67.8308 1.23533 67.9431C1.34764 67.9431 1.34764 67.9431 1.45994 68.0554L1.57224 68.5046C1.57224 68.7292 1.57224 68.9538 1.45994 69.0661C1.45994 69.1784 1.45994 69.403 1.45994 69.5153C1.45994 69.8522 1.57224 70.5261 1.68455 70.6384C1.79685 70.7507 1.90915 70.863 2.02146 70.863C2.13376 70.863 2.13376 70.7507 2.24606 70.7507C2.35836 70.6384 2.35836 70.5261 2.47067 70.4138C2.58297 70.3015 2.58297 70.1892 2.58297 70.0769C2.58297 69.9645 2.69527 69.403 2.69527 69.2907C2.58297 69.1784 2.47067 69.0661 2.47067 68.9538C2.35836 68.8415 2.35836 68.7292 2.35836 68.7292C2.35836 68.5046 2.35836 68.28 2.35836 68.0554C2.35836 67.7185 2.35836 67.4939 2.35836 67.4939C2.35836 67.4939 2.47067 67.4939 2.58297 67.3816C2.58297 67.3816 2.69527 67.3816 2.80758 67.2693C2.91988 67.2693 3.03218 67.157 3.14448 67.0447C3.5937 66.8201 3.93061 66.5955 4.37982 66.3709C4.60442 66.2585 4.71673 66.1462 4.82903 66.0339C4.60442 66.3708 5.16594 66.5955 5.72746 66.1462C5.83976 66.0339 5.83976 66.0339 5.83976 66.0339H5.95206C5.95206 66.0339 5.95206 66.0339 5.95206 66.1462C5.95206 66.1462 5.95206 66.2585 5.95206 66.4832C5.95206 66.7078 5.95206 66.8201 5.95206 66.9324C5.95206 67.157 6.17667 67.3816 6.40127 67.6062C6.62588 67.8308 6.96279 67.8308 7.18739 67.8308H7.2997C7.412 67.8308 7.412 67.8308 7.412 67.8308C7.5243 67.8308 7.5243 67.8308 7.6366 67.7185C7.74891 67.7185 7.86121 67.6062 7.97352 67.4939C8.19812 67.3816 8.31043 67.2693 8.53503 67.0447C8.64733 66.9324 8.75964 66.7078 8.87194 66.5955C8.87194 66.7078 8.98424 66.7078 9.09655 66.8201C9.20885 66.8201 9.32115 66.9324 9.43345 66.8201C9.54576 66.8201 9.65806 66.8201 9.65806 66.7078C9.77036 66.7078 9.88267 66.5955 9.99497 66.4832C10.1073 66.3708 10.1073 66.3709 10.2196 66.2585C10.3319 66.1462 10.3319 66.1462 10.4442 66.0339C10.5565 65.9216 10.6688 65.8093 10.6688 65.697C10.7811 65.5847 10.7811 65.4724 10.8934 65.4724L11.0057 65.5847C11.0057 65.5847 11.0057 65.697 11.118 65.697C11.2303 66.1462 11.4549 66.3708 11.5672 66.5955C11.7918 66.8201 12.0164 66.8201 12.241 66.8201C12.3533 66.8201 12.4656 66.8201 12.5779 66.8201C12.6902 66.8201 12.8025 66.8201 12.9148 66.8201C13.0271 66.8201 13.2518 66.7078 13.3641 66.7078C13.4764 66.5955 13.5887 66.4832 13.8133 66.3709C13.9256 66.2585 14.0379 66.1462 14.1502 66.0339C14.2625 65.9216 14.3748 65.8093 14.4871 65.697C14.5994 65.4724 14.824 65.3601 14.9363 65.1355C15.0486 65.0232 15.1609 64.9109 15.2732 64.9109C15.2732 64.9109 15.3855 64.9109 15.3855 65.0232C15.3855 65.0232 15.4978 65.1355 15.6101 65.2478C15.7224 65.3601 15.7224 65.3601 15.7224 65.3601L15.8347 65.4724C16.0593 65.9216 16.2839 66.1462 16.3962 66.2585C16.5085 66.3709 16.8455 66.3709 17.2947 66.2585C17.407 66.2585 17.5193 66.2586 17.6316 66.1462C17.7439 66.0339 17.8562 65.9216 18.0808 65.8093C18.1931 65.697 18.4177 65.4724 18.53 65.3601C18.6423 65.2478 18.7546 65.1355 18.7546 65.0232C18.7546 64.9109 18.8669 64.9109 18.8669 64.7986C18.8669 64.7986 18.8669 64.6863 18.9792 64.6863C19.2038 64.4617 19.4284 64.1248 19.653 63.9002C19.7653 63.7879 19.8776 63.5633 19.9899 63.451C20.1022 63.3387 20.1022 63.2264 20.2145 63.1141H20.3268H20.4391C20.4391 63.2264 20.3268 63.3387 20.3268 63.451C20.3268 63.6756 20.3268 63.7879 20.3268 64.0125C20.3268 64.1248 20.3268 64.2371 20.3268 64.3494C20.3268 64.4617 20.3268 64.4617 20.3268 64.574V64.6863C20.3268 64.7986 20.3268 65.0232 20.3268 65.1355C20.3268 65.3601 20.3268 65.5847 20.4391 65.8093C20.4391 66.0339 20.5515 66.2585 20.6638 66.3709C20.7761 66.4832 21.0007 66.4832 21.113 66.4832C21.2253 66.4832 21.3376 66.4832 21.4499 66.3709C21.5622 66.2585 21.6745 66.1462 21.7868 66.0339C21.8991 65.9216 21.8991 65.8093 22.0114 65.697C22.1237 65.5847 22.1237 65.4724 22.236 65.3601C22.3483 65.2478 22.3483 65.1355 22.4606 65.1355C22.5729 65.0232 22.5729 65.0232 22.5729 64.9109C22.6852 64.7986 22.7975 64.6863 22.7975 64.6863C22.9098 64.574 22.9098 64.574 23.0221 64.4617C23.0221 64.3494 23.1344 64.3494 23.1344 64.2371L23.2467 64.1248H23.359C23.359 64.1248 23.4713 64.2371 23.4713 64.3494C23.5836 64.4617 23.5836 64.574 23.6959 64.6863C23.8082 64.7986 23.8082 64.7986 23.8082 64.9109C23.9205 65.0232 24.0328 65.0232 24.1451 65.1355C24.2574 65.1355 24.4821 65.1355 24.5944 65.1355C24.7067 65.1355 24.819 65.1355 24.9313 65.0232C25.0436 65.0232 25.1559 64.9109 25.1559 64.9109C25.3805 64.9109 25.4928 64.7986 25.7174 64.574C25.942 64.4617 26.1666 64.1248 26.3912 63.9002C26.5035 63.7879 26.5035 63.6756 26.5035 63.6756V63.5633C26.6158 63.3387 26.7281 63.2264 26.7281 63.1141C26.8404 63.0018 26.8404 62.8895 26.9527 62.7772L27.065 62.8895C27.065 63.0018 27.065 63.0018 27.065 63.1141C27.065 63.2264 27.065 63.3387 27.065 63.451C27.065 63.7879 26.9527 64.0125 26.9527 64.2371C26.9527 64.4617 26.9527 64.6863 26.9527 64.9109C26.9527 65.1355 27.065 65.2478 27.1773 65.3601C27.2896 65.4724 27.4019 65.4724 27.6265 65.4724C27.7388 65.4724 27.8511 65.3601 27.9635 65.2478C28.0758 65.1355 28.0758 65.0232 28.1881 64.9109C28.1881 64.7986 28.3004 64.7986 28.3004 64.6863L28.4127 64.574C28.525 64.4617 28.525 64.3494 28.6373 64.2371C28.7496 64.1248 28.7496 64.0125 28.8619 63.9002C28.9742 63.6756 29.0865 63.5633 29.1988 63.3387C29.1988 63.3387 29.4234 63.451 29.7603 63.6756C30.0972 63.9002 30.4341 64.0125 30.5464 64.0125C30.6587 64.0125 30.771 63.9002 30.9956 63.9002C31.1079 63.7879 31.2202 63.6756 31.3325 63.5633C31.4448 63.451 31.5571 63.3387 31.6694 63.2264C31.7818 63.1141 31.8941 63.0018 32.0064 62.8895L32.1187 62.7772V62.6648C32.231 62.5525 32.231 62.5525 32.3433 62.4402C32.3433 62.3279 32.4556 62.3279 32.4556 62.3279L32.5679 62.2156C32.6802 62.1033 32.6802 61.991 32.7925 61.8787C32.9048 61.7664 33.0171 61.6541 33.0171 61.5418C32.231 61.8787 32.231 61.8787 32.3433 61.8787H32.4556C32.4556 61.8787 32.4556 61.8787 32.4556 61.991V62.1033C32.4556 62.1033 32.4556 62.2156 32.4556 62.3279C32.4556 62.4402 32.4556 62.4402 32.4556 62.4402V62.5525C32.3433 63.0018 32.3433 63.3387 32.3433 63.6756C32.3433 64.0125 32.231 64.2371 32.231 64.4617C32.231 64.574 32.3433 64.6863 32.3433 64.7986C32.3433 64.9109 32.4556 65.0232 32.6802 64.9109C32.7925 64.9109 32.9048 64.9109 32.9048 64.7986C33.0171 64.7986 33.0171 64.6863 33.1294 64.6863C33.1294 64.574 33.2417 64.574 33.2417 64.4617C33.2417 64.3494 33.354 64.3494 33.354 64.2371C33.5786 64.0125 33.6909 63.6756 33.9155 63.5633C34.0278 63.3387 34.1401 63.2264 34.2524 63.1141C34.2524 63.0018 34.3647 63.0018 34.3647 62.8895C34.477 62.7772 34.5893 62.6649 34.8139 62.4402C34.9262 62.3279 35.0385 62.2156 35.0385 62.2156C35.1508 62.1033 35.1508 62.1033 35.2631 62.1033H35.3754C35.4878 62.2156 35.6001 62.3279 35.7124 62.4402C35.8247 62.5525 35.937 62.5525 35.937 62.6648C36.0493 62.7772 36.1616 62.8895 36.1616 63.0018C36.2739 63.1141 36.2739 63.1141 36.3862 63.2264C36.4985 63.3387 36.6108 63.3387 36.7231 63.451C36.8354 63.451 36.9477 63.451 37.06 63.451C37.1723 63.451 37.2846 63.451 37.2846 63.3387C37.3969 63.3387 37.5092 63.2264 37.5092 63.1141C37.6215 63.0018 37.6215 63.0018 37.7338 62.8895C37.8461 62.7772 37.8461 62.7772 37.9584 62.6648C38.0707 62.4402 38.2953 62.2156 38.4076 62.1033C38.5199 61.991 38.6322 61.8787 38.6322 61.8787C38.6322 61.8787 38.7445 61.8787 38.7445 61.991C38.7445 61.991 38.8568 62.1033 38.9691 62.2156C38.9691 62.3279 39.0814 62.3279 39.0814 62.3279L39.1937 62.4402C39.4184 62.8895 39.643 63.1141 39.7553 63.2264C39.8676 63.3387 40.2045 63.3387 40.6537 63.2264C40.766 63.2264 40.766 63.1141 40.9906 63.1141C41.1029 63.0018 41.2152 62.8895 41.4398 62.7772C41.5521 62.6649 41.7767 62.4402 41.889 62.3279C42.0013 62.2156 42.1136 62.1033 42.1136 61.991C42.2259 61.8787 42.2259 61.7664 42.2259 61.7664V61.6541C42.3382 61.5418 42.4505 61.3172 42.4505 61.2049C42.5628 61.0926 42.5628 60.9803 42.6751 60.868V60.9803C42.6751 61.0926 42.6751 61.0926 42.6751 61.2049C42.6751 61.3172 42.6751 61.4295 42.6751 61.5418C42.6751 61.8787 42.5628 62.1033 42.5628 62.3279C42.5628 62.5525 42.5628 62.7772 42.5628 63.0018C42.5628 63.2264 42.6751 63.3387 42.7874 63.451C42.8998 63.5633 43.0121 63.5633 43.2367 63.5633C43.349 63.5633 43.4613 63.451 43.5736 63.3387C43.6859 63.2264 43.6859 63.1141 43.7982 63.0018C43.7982 62.8895 43.9105 62.8895 43.9105 62.7772L44.0228 62.6648C44.1351 62.5525 44.1351 62.4402 44.2474 62.3279C44.3597 62.2156 44.3597 62.1033 44.472 61.991C44.5843 61.7664 44.6966 61.6541 44.8089 61.4295C44.8089 61.4295 45.0335 61.5418 45.3704 61.7664C45.7073 61.991 46.0442 62.1033 46.1565 62.1033C46.2688 62.1033 46.3811 61.991 46.4934 61.991C46.6057 61.8787 46.7181 61.7664 46.8304 61.6541C46.9427 61.5418 47.055 61.4295 47.1673 61.3172C47.2796 61.2049 47.3919 61.0926 47.5042 60.9803C47.3919 61.2049 48.178 60.0819 47.9534 59.9696ZM4.26751 65.4724C4.26751 65.5847 4.15521 65.5847 4.04291 65.697C3.93061 65.8093 3.93061 65.8093 3.8183 65.9216C3.706 65.9216 3.706 66.0339 3.706 66.0339C3.5937 66.1462 3.48139 66.1462 3.36909 66.2585C3.25679 66.3709 3.14449 66.3708 3.03218 66.4832C2.80758 66.5955 2.69527 66.7078 2.58297 66.8201C2.47067 66.9324 2.35836 66.9324 2.35836 66.9324H2.24606V66.8201C2.24606 66.5955 2.24606 66.3708 2.24606 66.0339C2.24606 65.697 2.24606 65.2478 2.35836 64.7986L2.24606 64.4617C2.24606 64.3494 2.35836 63.9002 2.47067 63.2264C2.58297 62.5525 2.58297 62.2156 2.58297 62.1033C2.58297 61.8787 2.24606 61.4295 1.57224 60.9803V60.868C1.57224 60.868 1.57224 60.868 1.68455 60.868C1.79685 60.868 2.02146 60.9803 2.13376 60.9803C2.24606 60.9803 2.35836 61.0926 2.47067 61.0926C2.58297 61.0926 2.58297 61.2049 2.58297 61.2049L2.69527 61.3172C3.03218 61.5418 3.36909 61.7664 3.5937 61.991C3.8183 62.2156 3.93061 62.3279 4.04291 62.4402C4.04291 62.5525 4.15521 62.5525 4.15521 62.6648L4.26751 62.7772L4.37982 62.8895C4.37982 62.8895 4.37982 62.8895 4.37982 63.0018V63.1141C4.49212 63.3387 4.60443 63.451 4.60443 63.6756C4.71673 63.9002 4.71673 64.0125 4.71673 64.2371C4.71673 64.574 4.71673 64.7986 4.71673 65.0232C4.60442 65.2478 4.49212 65.4724 4.37982 65.5847C4.37982 65.3601 4.26751 65.3601 4.26751 65.4724ZM8.53503 65.5847C8.53503 65.697 8.53503 65.8093 8.53503 65.8093C8.53503 65.9216 8.53503 65.9216 8.42273 65.9216C8.42273 66.0339 8.31042 66.1462 8.19812 66.2585C8.08582 66.4832 7.97352 66.7078 7.74891 66.8201C7.5243 66.9324 7.412 67.0447 7.18739 67.0447C7.07509 67.0447 6.96279 67.0447 6.85049 66.9324C6.73818 66.8201 6.73818 66.8201 6.73818 66.5955C6.73818 66.4831 6.73818 66.4832 6.73818 66.3709C6.73818 66.2585 6.73818 66.1462 6.85049 66.0339C6.85049 65.8093 6.96279 65.697 6.96279 65.5847C6.96279 65.4724 7.07509 65.4724 7.07509 65.4724C7.18739 65.4724 7.18739 65.4724 7.2997 65.3601L7.412 65.2478C7.5243 65.1355 7.5243 65.0232 7.6366 64.9109C7.6366 64.7986 7.74891 64.7986 7.74891 64.6863L7.86121 64.574C7.97351 64.574 8.08582 64.574 8.19812 64.574C8.31042 64.574 8.31042 64.574 8.31042 64.574L8.42273 64.6863C8.53503 64.7986 8.53503 64.9109 8.64733 65.0232L8.53503 65.5847ZM11.118 63.2264C11.118 63.1141 11.118 63.0018 11.118 62.8895C11.118 62.6649 11.2303 62.5526 11.2303 62.2156C11.2303 61.991 11.3426 61.8787 11.3426 61.6541C11.3426 61.5418 11.4549 61.4295 11.4549 61.3172C11.4549 61.2049 11.4549 61.2049 11.4549 61.0926C11.4549 60.868 11.4549 60.6434 11.5672 60.4188C11.6795 60.1942 11.7918 59.8573 12.0164 59.6327C12.0164 59.745 12.0164 59.8573 12.0164 59.8573C12.0164 59.9696 12.0164 60.0819 12.0164 60.1942C12.0164 60.3065 12.0164 60.6434 11.9041 61.0926C11.7918 61.5418 11.6795 61.8787 11.6795 61.991C11.5672 62.1033 11.5672 62.3279 11.4549 62.4402C11.3426 62.5525 11.3426 62.6649 11.3426 62.7772C11.3426 63.0018 11.2303 63.1141 11.2303 63.1141C11.3426 63.2264 11.2303 63.3387 11.118 63.2264ZM23.1344 62.5525C23.1344 62.6648 23.1344 62.6648 23.1344 62.5525C23.0221 62.6648 22.9098 62.6648 22.9098 62.6648C22.9098 62.6648 22.9098 62.6648 22.9098 62.5525C22.9098 62.4402 22.9098 62.2156 23.1344 61.8787C23.2467 61.5418 23.359 61.4295 23.4713 61.4295H23.5836C23.5836 61.4295 23.5836 61.4295 23.5836 61.5418C23.5836 61.6541 23.5836 61.6541 23.5836 61.7664C23.5836 61.8787 23.5836 61.8787 23.4713 61.991C23.4713 62.1033 23.359 62.1033 23.359 62.2156C23.359 62.3279 23.2467 62.3279 23.2467 62.4402C23.2467 62.4402 23.2467 62.5525 23.1344 62.5525Z" fill="white"/>
<path fill-rule="evenodd" clip-rule="evenodd" d="M44.2474 6.17667C44.472 5.61515 44.5843 5.05364 44.5843 4.49212C44.5843 2.02145 42.5628 0 40.0922 0C37.6215 0 35.6001 2.02145 35.6001 4.49212C35.6001 4.60442 35.6001 4.60442 35.6001 4.71672H8.64733C3.93061 4.71672 0.112305 8.53503 0.112305 13.2518V43.9105C0.112305 48.6272 3.93061 52.4455 8.64733 52.4455H39.4184C44.1351 52.4455 47.9534 48.6272 47.9534 43.9105V13.2518C47.9534 10.3319 46.4934 7.74891 44.2474 6.17667ZM42.6751 19.0915V28.6373V38.183V47.7288H37.5092V42.6751L37.1723 43.5736L36.7231 44.3597L36.2739 45.2581L35.7124 46.0442L35.4878 46.3811L35.1508 46.718L34.477 47.1673L34.1401 47.3919L33.8032 47.5042L33.4663 47.6165H33.1294H27.8511L26.6158 39.1938L29.3111 39.3061H30.0972H30.8833L31.6694 39.1938L32.0064 39.0814L32.3433 38.8568L32.4556 38.6322L32.5679 38.4076L32.6802 38.183L32.7925 37.9584V37.7338V37.3969V36.7231L32.6802 36.0493L32.4556 35.3754L32.231 34.7016V33.9155L29.1988 27.8511L31.5571 23.2467L31.8941 22.4606L32.1187 21.7868L32.3433 21.2253L32.4556 20.6638V20.2145V19.7653L32.3433 19.4284L32.231 19.0915L32.1187 18.8669L31.8941 18.6423L31.6694 18.53L31.3325 18.4177L30.9956 18.3054L30.6587 18.1931H30.2095H29.7603H27.7388L27.8511 19.5407V21.0007V22.4606L27.6265 23.6959L27.5142 25.0436L27.2896 26.3912L27.065 27.6265L26.9527 28.1881L26.8404 28.7496L26.6158 29.3111L26.3912 29.8726L25.8297 31.1079L25.4928 31.7817L25.1559 32.4556L24.3698 33.8032L23.9205 34.477L23.4713 35.1508L22.5729 36.4985L21.4499 38.2953L21.0007 38.9691L20.4391 39.643V47.6165H16.1716V43.1244L15.2732 47.6165H5.50285V38.0707V28.525V18.9792V9.43345H10.6688V24.2574V39.0814H16.2839V29.3111V19.5407H20.5514V29.5357L21.0007 28.8619L21.5622 27.9635L22.0114 26.9527L22.4606 25.942L22.9098 24.819L23.2467 23.6959L23.359 23.1344L23.4713 22.5729L23.5836 22.0114V21.5622V20.4391L23.4713 19.653L23.359 19.3161L23.0221 19.2038L22.9098 18.9792L22.6852 18.8669L22.236 18.7546H21.7868H20.5514H15.0486L16.2839 9.65806H21.7868H22.3483L22.9098 9.77036L23.359 9.88266L23.8082 10.1073L24.2575 10.3319L24.7067 10.5565L25.0436 10.8934L25.3805 11.2303L25.7174 11.5672L26.0543 12.0164L26.5035 12.9148L26.7281 13.4764L26.9527 14.0379L27.1773 14.5994L27.2896 15.1609L28.0757 9.54576H32.4556H33.0171L33.4663 9.65806L33.9155 9.77036L34.3647 9.99497L34.8139 10.3319L35.1508 10.6688L35.4878 11.118L35.8247 11.5672L36.1616 12.0164L36.3862 12.5779L36.6108 13.1394L36.8354 13.8133L36.9477 14.4871L37.06 15.1609L37.1723 15.8347V16.6208V18.3054L37.06 19.7653L36.7231 21.2253L36.6108 21.8991L36.3862 22.5729L36.1616 23.6959L35.8247 24.9313L34.9262 27.5142L35.4878 28.8619L36.1616 30.5464L36.8354 32.5679L37.1723 33.6909L37.5092 34.8139V22.236V9.54576H42.6751V19.0915ZM40.0922 8.31042C37.9584 8.31042 36.2739 6.62588 36.2739 4.49212C36.2739 2.35836 37.9584 0.673816 40.0922 0.673816C42.2259 0.673816 43.9105 2.35836 43.9105 4.49212C43.9105 6.51357 42.2259 8.31042 40.0922 8.31042Z" fill="white"/>
<path d="M78.0505 20.6636C79.1735 20.6636 79.9596 21.0005 80.6334 21.5621C81.3073 22.1236 81.6442 23.022 81.6442 23.9204C81.6442 24.9311 81.3073 25.7173 80.6334 26.3911C79.9596 26.9526 79.0612 27.2895 77.9382 27.2895H75.6921V30.2094H73.3337V20.5513H78.0505V20.6636ZM77.7136 25.3804C78.1628 25.3804 78.4997 25.2681 78.8366 25.0435C79.0612 24.8188 79.2858 24.4819 79.2858 24.0327C79.2858 23.6958 79.1735 23.3589 78.8366 23.022C78.612 22.7974 78.1628 22.6851 77.7136 22.6851H75.5798V25.3804H77.7136Z" fill="white"/>
<path d="M90.7408 21.8994C91.7516 22.9101 92.2008 24.0331 92.2008 25.4931C92.2008 26.8407 91.7516 28.0761 90.7408 29.0868C89.7301 30.0975 88.4948 30.5467 87.1471 30.5467C85.6872 30.5467 84.4519 30.0975 83.5534 29.0868C82.5427 28.0761 82.0935 26.953 82.0935 25.4931C82.0935 24.0331 82.5427 22.9101 83.5534 21.8994C84.5642 20.8887 85.7995 20.4395 87.1471 20.4395C88.4948 20.4395 89.7301 20.8887 90.7408 21.8994ZM89.0563 27.5145C89.6178 26.953 89.8424 26.2792 89.8424 25.4931C89.8424 24.707 89.6178 24.0332 89.0563 23.4716C88.4948 22.9101 87.821 22.6855 87.0348 22.6855C86.2487 22.6855 85.5749 22.9101 85.0134 23.4716C84.4519 24.0332 84.2273 24.707 84.2273 25.4931C84.2273 26.2792 84.4519 26.953 85.0134 27.5145C85.5749 28.0761 86.2487 28.3007 87.0348 28.3007C87.821 28.3007 88.4948 28.0761 89.0563 27.5145Z" fill="white"/>
<path d="M100.062 30.2095H92.9868V20.6637H95.3452V28.188H100.062V30.2095Z" fill="white"/>
<path d="M103.206 20.6637H100.848V30.3218H103.206V20.6637Z" fill="white"/>
<path d="M109.271 22.6851V30.2095H106.912V22.6851H103.768V20.6637H112.303V22.6851H109.271Z" fill="white"/>
<path d="M120.389 30.2095H112.865V20.6637H120.389V22.6851H115.335V24.482H119.94V26.3911H115.335V28.188H120.389V30.2095Z" fill="white"/>
<path d="M127.351 30.2095L124.207 26.6158H123.645V30.2095H121.287V20.6637H123.645V24.482H123.982L127.351 20.6637H130.159L126.116 25.4927L130.496 30.2095H127.351Z" fill="white"/>
<path d="M139.93 30.2095H137.908L133.079 24.7066V30.2095H130.721V20.6637H132.63L137.571 26.3911V20.6637H139.93V30.2095Z" fill="white"/>
<path d="M143.299 20.6637H140.94V30.3218H143.299V20.6637Z" fill="white"/>
<path d="M150.486 30.2095L147.342 26.6158H146.78V30.2095H144.422V20.6637H146.78V24.482H147.117L150.486 20.6637H153.294L149.251 25.4927L153.63 30.2095H150.486Z" fill="white"/>
<path d="M163.625 30.2095H156.55V20.6637H158.909V28.188H163.625V30.2095Z" fill="white"/>
<path d="M169.128 20.6636C170.251 20.6636 171.037 21.0005 171.711 21.5621C172.385 22.1236 172.722 23.022 172.722 23.9204C172.722 24.9311 172.385 25.7173 171.711 26.3911C171.037 26.9526 170.139 27.2895 169.016 27.2895H166.77V30.2094H164.412V20.5513H169.128V20.6636ZM168.904 25.3804C169.353 25.3804 169.69 25.2681 170.027 25.0435C170.251 24.8188 170.476 24.4819 170.476 24.0327C170.476 23.6958 170.364 23.3589 170.027 23.022C169.802 22.7974 169.353 22.6851 168.904 22.6851H166.77V25.3804H168.904Z" fill="white"/>
<path d="M180.359 27.402C180.359 28.3004 180.022 29.0865 179.348 29.6481C178.674 30.2096 177.776 30.5465 176.765 30.5465C175.754 30.5465 174.856 30.3219 174.182 29.7604C173.508 29.1988 173.059 28.525 172.947 27.5143L175.193 27.0651C175.305 27.5143 175.417 27.9635 175.642 28.1881C175.866 28.4127 176.203 28.525 176.653 28.525C177.102 28.525 177.439 28.4127 177.663 28.1881C177.888 27.9635 178 27.7389 178 27.402C178 27.0651 177.888 26.8405 177.663 26.6159C177.439 26.3913 177.102 26.279 176.653 26.279H175.53V24.4821H176.54C176.989 24.4821 177.214 24.3698 177.439 24.1452C177.663 23.9206 177.776 23.696 177.776 23.3591C177.776 23.0222 177.663 22.7976 177.439 22.573C177.214 22.3484 176.877 22.236 176.54 22.236C176.091 22.236 175.754 22.3484 175.53 22.573C175.305 22.7976 175.08 23.2468 175.08 23.696L172.947 23.2468C173.059 22.3484 173.396 21.5622 174.07 21.0007C174.743 20.4392 175.529 20.2146 176.54 20.2146C177.551 20.2146 178.449 20.5515 179.011 21.113C179.685 21.6745 180.022 22.4607 180.022 23.2468C180.022 24.1452 179.685 24.819 179.011 25.1559C179.909 25.8298 180.359 26.5036 180.359 27.402Z" fill="white"/>
<path d="M183.503 20.6637H181.145V30.3218H183.503V20.6637Z" fill="white"/>
<path d="M79.1735 42.3381L76.1413 38.7444H75.5798V42.3381H73.3337V32.9046H75.5798V36.6106H75.9167L79.1735 32.9046H81.9811L77.9382 37.6213L82.2057 42.3381H79.1735Z" fill="white"/>
<path d="M89.3932 42.3381L88.7194 40.6535H84.7888L84.115 42.3381H81.6443L85.5749 32.9046H87.9333L91.8639 42.3381H89.3932ZM86.6979 35.4876L85.4626 38.6321H87.821L86.6979 35.4876Z" fill="white"/>
<path d="M102.982 42.3381H100.736V37.6213L98.265 42.3381H96.8051L94.3344 37.6213V42.3381H92.0884V32.9046H94.3344L97.5912 38.7444L100.736 32.9046H102.982V42.3381Z" fill="white"/>
<path d="M108.709 32.9046C109.72 32.9046 110.618 33.2415 111.18 33.803C111.854 34.3645 112.078 35.1507 112.078 36.1614C112.078 37.1721 111.741 37.9582 111.068 38.5198C110.394 39.0813 109.608 39.4182 108.485 39.4182H106.238V42.3381H103.88V32.9046H108.709V32.9046ZM108.372 37.509C108.821 37.509 109.158 37.3967 109.383 37.1721C109.608 36.9475 109.72 36.6106 109.72 36.1614C109.72 35.8245 109.608 35.4876 109.271 35.263C109.046 35.0384 108.709 34.9261 108.26 34.9261H106.351V37.509H108.372Z" fill="white"/>
<path d="M121.175 38.0705C121.175 39.4182 120.838 40.5412 120.052 41.3273C119.266 42.1134 118.255 42.5627 117.02 42.5627C115.784 42.5627 114.661 42.1134 113.875 41.3273C113.089 40.5412 112.752 39.4182 112.752 38.0705V32.9046H115.111V38.0705C115.111 38.7444 115.335 39.3059 115.672 39.7551C116.009 40.2043 116.458 40.4289 117.132 40.4289C117.694 40.4289 118.143 40.2043 118.48 39.7551C118.817 39.3059 119.041 38.7444 119.041 38.0705V32.9046H121.4V38.0705H121.175Z" fill="white"/>
<path d="M128.475 33.4664C129.148 33.9156 129.598 34.5894 129.822 35.4878L127.576 35.937C127.464 35.4878 127.239 35.1509 127.015 34.9263C126.678 34.7017 126.341 34.5894 126.004 34.5894C125.667 34.5894 125.33 34.7017 125.105 34.814C124.881 35.0386 124.769 35.2632 124.769 35.4878C124.769 35.937 124.993 36.1616 125.555 36.2739L127.464 36.7231C129.148 37.06 130.047 38.0708 130.047 39.4184C130.047 40.4291 129.71 41.103 128.924 41.6645C128.138 42.226 127.239 42.4506 126.116 42.4506C124.993 42.4506 124.095 42.226 123.309 41.6645C122.522 41.2153 122.073 40.4291 121.961 39.5307L124.319 39.0815C124.544 39.9799 125.218 40.4291 126.228 40.4291C126.678 40.4291 127.015 40.3168 127.239 40.2045C127.464 39.9799 127.576 39.7553 127.576 39.5307C127.576 39.3061 127.464 39.0815 127.351 38.9692C127.239 38.8569 127.015 38.7446 126.678 38.6323L124.656 38.1831C122.972 37.8462 122.073 36.8354 122.073 35.4878C122.073 34.5894 122.41 33.8033 123.084 33.354C123.758 32.7925 124.656 32.5679 125.779 32.5679C127.015 32.6802 127.801 32.9048 128.475 33.4664Z" fill="white"/>
<path d="M138.245 34.9261V42.3381H135.999V34.9261H132.967V32.9046H141.277V34.9261H138.245Z" fill="white"/>
<path d="M147.791 42.3381L147.117 40.6535H143.186L142.512 42.3381H140.042L143.972 32.9046H146.331L150.261 42.3381H147.791ZM145.208 35.4876L143.972 38.6321H146.331L145.208 35.4876Z" fill="white"/>
<path d="M156.55 33.4664C157.224 33.9156 157.673 34.5894 157.898 35.4878L155.652 35.937C155.539 35.4878 155.315 35.1509 155.09 34.9263C154.753 34.7017 154.416 34.5894 154.08 34.5894C153.743 34.5894 153.406 34.7017 153.181 34.814C152.957 35.0386 152.844 35.2632 152.844 35.4878C152.844 35.937 153.069 36.1616 153.63 36.2739L155.539 36.7231C157.224 37.06 158.122 38.0708 158.122 39.4184C158.122 40.4291 157.786 41.103 156.999 41.6645C156.213 42.226 155.315 42.4506 154.192 42.4506C153.069 42.4506 152.17 42.226 151.384 41.6645C150.598 41.2153 150.149 40.4291 150.037 39.5307L152.395 39.0815C152.62 39.9799 153.293 40.4291 154.304 40.4291C154.753 40.4291 155.09 40.3168 155.315 40.2045C155.539 39.9799 155.652 39.7553 155.652 39.5307C155.652 39.3061 155.539 39.0815 155.427 38.9692C155.315 38.8569 155.09 38.7446 154.753 38.6323L152.732 38.1831C151.047 37.8462 150.149 36.8354 150.149 35.4878C150.149 34.5894 150.486 33.8033 151.16 33.354C151.833 32.7925 152.732 32.5679 153.855 32.5679C155.09 32.6802 155.876 32.9048 156.55 33.4664Z" fill="white"/>
<path d="M161.155 32.9046H158.796V42.3381H161.155V32.9046Z" fill="white"/>
<path d="M168.118 42.3381L164.973 38.7444H164.524V42.3381H162.166V32.9046H164.524V36.6106H164.861L168.118 32.9046H170.813L166.882 37.6213L171.15 42.3381H168.118Z" fill="white"/>
<path d="M182.155 42.3381H179.909V37.6213L177.551 42.3381H176.091L173.62 37.6213V42.3381H171.374V32.9046H173.62L176.765 38.7444L179.909 32.9046H182.155V42.3381Z" fill="white"/>
<path d="M190.241 42.3381L189.568 40.6535H185.637L184.963 42.3381H182.492L186.423 32.9046H188.781L192.712 42.3381H190.241ZM187.546 35.4876L186.311 38.6321H188.669L187.546 35.4876Z" fill="white"/>
<path d="M199.899 42.3381H192.937V32.9046H195.295V40.3166H199.899V42.3381Z" fill="white"/>
<path d="M207.536 42.3381L206.862 40.6535H202.932L202.258 42.3381H199.787L203.718 32.9046H206.076L210.007 42.3381H207.536ZM204.953 35.4876L203.718 38.6321H206.076L204.953 35.4876Z" fill="white"/>
<path d="M214.049 42.3381H211.691V39.4182L208.097 32.9046H210.568L212.926 37.0598L215.172 32.9046H217.755L214.049 39.4182V42.3381Z" fill="white"/>
<path d="M223.483 42.3381L222.809 40.6535H218.878L218.205 42.3381H215.734L219.664 32.9046H222.023L225.953 42.3381H223.483ZM220.9 35.4876L219.664 38.6321H222.023L220.9 35.4876Z" fill="white"/>
<path d="M60.8682 1.57214H60.4189V64.2372H60.8682V1.57214Z" fill="white"/>
</svg>
