<svg width="223" height="60" viewBox="0 0 223 60" fill="none" xmlns="http://www.w3.org/2000/svg">
<path d="M69.5963 19.5413C70.7112 19.5413 71.6003 19.8296 72.2637 20.4194C72.927 20.996 73.2516 21.7693 73.2516 22.7261C73.2516 23.6959 72.9129 24.4823 72.2355 25.059C71.5581 25.6487 70.6407 25.9371 69.4975 25.9371H67.1548V28.7549H64.7131V19.5413H69.5963ZM69.314 24.0367C69.7939 24.0367 70.1608 23.9187 70.429 23.6828C70.6971 23.4469 70.8383 23.1324 70.8383 22.7392C70.8383 22.3591 70.6971 22.0576 70.429 21.8217C70.1467 21.5858 69.7798 21.4679 69.314 21.4679H67.1548V24.0236H69.314V24.0367Z" fill="#00426D"/>
<path d="M82.6652 20.734C83.6955 21.6645 84.2036 22.8047 84.2036 24.1547C84.2036 25.4915 83.6955 26.6317 82.6652 27.5623C81.635 28.4928 80.393 28.9646 78.9111 28.9646C77.4292 28.9646 76.1731 28.4928 75.157 27.5623C74.1267 26.6317 73.6187 25.4915 73.6187 24.1547C73.6187 22.8047 74.1267 21.6645 75.157 20.734C76.1731 19.8034 77.4292 19.3316 78.9111 19.3316C80.393 19.3316 81.6491 19.8034 82.6652 20.734ZM80.9434 26.1075C81.4938 25.5963 81.762 24.941 81.762 24.1678C81.762 23.3814 81.4938 22.7261 80.9434 22.2019C80.393 21.6776 79.7156 21.4155 78.9111 21.4155C78.0925 21.4155 77.4151 21.6776 76.8788 22.2019C76.3284 22.7261 76.0603 23.3814 76.0603 24.1678C76.0603 24.941 76.3284 25.5963 76.8788 26.1075C77.4151 26.6317 78.0925 26.8808 78.9111 26.8808C79.7156 26.8808 80.393 26.6186 80.9434 26.1075Z" fill="#00426D"/>
<path d="M92.3328 28.7549H84.9939V19.5413H87.4355V26.7759H92.3328V28.7549Z" fill="#00426D"/>
<path d="M95.5505 19.5413H93.1089V28.7549H95.5505V19.5413Z" fill="#00426D"/>
<path d="M101.774 21.5203V28.7549H99.3328V21.5203H96.115V19.5413H104.992V21.5203H101.774Z" fill="#00426D"/>
<path d="M113.305 28.7549H105.557V19.5413H113.249V21.4941H107.998V23.2241H112.825V25.0721H107.998V26.8021H113.305V28.7549Z" fill="#00426D"/>
<path d="M120.446 28.7549L117.2 25.2818H116.678V28.7549H114.237V19.5413H116.678V23.1979H117.045L120.418 19.5413H123.354L119.134 24.1546L123.65 28.7549H120.446Z" fill="#00426D"/>
<path d="M133.374 28.7549H131.356L126.331 23.4207V28.7549H123.876V19.5413H125.908L130.946 25.0458V19.5413H133.374V28.7549Z" fill="#00426D"/>
<path d="M136.959 19.5413H134.517V28.7549H136.959V19.5413Z" fill="#00426D"/>
<path d="M144.312 28.7549L141.065 25.2818H140.543V28.7549H138.088V19.5413H140.543V23.1979H140.896L144.283 19.5413H147.219L142.985 24.1546L147.515 28.7549H144.312Z" fill="#00426D"/>
<path d="M157.931 28.7549H150.592V19.5413H153.034V26.7759H157.931V28.7549Z" fill="#00426D"/>
<path d="M163.604 19.5413C164.719 19.5413 165.608 19.8296 166.272 20.4194C166.935 20.996 167.26 21.7693 167.26 22.7261C167.26 23.6959 166.921 24.4823 166.244 25.059C165.566 25.6487 164.649 25.9371 163.506 25.9371H161.163V28.7549H158.721V19.5413H163.604ZM163.322 24.0367C163.802 24.0367 164.169 23.9187 164.437 23.6828C164.705 23.4469 164.846 23.1324 164.846 22.7392C164.846 22.3591 164.705 22.0576 164.437 21.8217C164.155 21.5858 163.788 21.4679 163.322 21.4679H161.163V24.0236H163.322V24.0367Z" fill="#00426D"/>
<path d="M175.121 25.9895C175.121 26.8545 174.768 27.5754 174.076 28.1258C173.385 28.6763 172.496 28.9515 171.409 28.9515C170.365 28.9515 169.49 28.6894 168.784 28.1651C168.078 27.6409 167.669 26.9332 167.57 26.0419L169.885 25.6488C169.955 26.1075 170.125 26.4613 170.379 26.7104C170.647 26.9594 170.986 27.0773 171.423 27.0773C171.832 27.0773 172.185 26.9725 172.453 26.7628C172.722 26.5531 172.849 26.291 172.849 25.9633C172.849 25.6488 172.736 25.3997 172.496 25.2163C172.256 25.0328 171.931 24.941 171.508 24.941H170.365V23.2634H171.409C171.818 23.2634 172.157 23.1717 172.383 22.9882C172.623 22.8047 172.736 22.5557 172.736 22.2543C172.736 21.9397 172.609 21.6776 172.369 21.481C172.129 21.2844 171.804 21.1927 171.409 21.1927C171 21.1927 170.647 21.3106 170.393 21.5596C170.125 21.8087 169.97 22.1756 169.927 22.6737L167.683 22.2805C167.796 21.3761 168.177 20.6553 168.855 20.118C169.532 19.5806 170.379 19.3185 171.395 19.3185C172.453 19.3185 173.314 19.5937 173.964 20.1311C174.627 20.6684 174.951 21.363 174.951 22.228C174.951 23.0799 174.599 23.6959 173.879 24.0891C174.712 24.4692 175.121 25.1114 175.121 25.9895Z" fill="#00426D"/>
<path d="M178.367 19.5413H175.925V28.7549H178.367V19.5413Z" fill="#00426D"/>
<path d="M14.0892 49.6199C14.2021 49.6068 14.2726 49.6199 14.3291 49.6461C14.3855 49.6854 14.4138 49.7378 14.4279 49.8034C14.4138 49.9213 14.4138 50.0131 14.3997 50.0917C14.3855 50.2359 14.3573 50.3669 14.3432 50.4587C14.315 50.5504 14.3009 50.616 14.3009 50.6553C14.2726 50.747 14.2303 50.8257 14.188 50.9043C14.1315 50.9829 14.0609 51.0485 13.9763 51.114C13.8916 51.1795 13.8069 51.2451 13.7504 51.2713C13.694 51.2975 13.6517 51.3237 13.6234 51.3237C13.5529 51.3237 13.4823 51.3237 13.4117 51.3237C13.3553 51.3237 13.2847 51.3368 13.2141 51.3499C13.1577 51.3237 13.1012 51.2713 13.0589 51.2057C13.0025 51.1271 12.9884 51.0222 12.9601 50.8912C12.946 50.7732 13.0025 50.616 13.1295 50.4194C13.2565 50.2228 13.3835 50.1048 13.4964 50.0786C13.5528 49.9869 13.6234 49.882 13.7081 49.7641C13.7504 49.7378 13.7928 49.6985 13.8633 49.6723C13.9339 49.6461 14.0045 49.6199 14.0892 49.6199Z" fill="#ED1C24"/>
<path d="M35.5694 46.8546C35.6823 46.8415 35.7528 46.8546 35.8093 46.8808C35.8657 46.9201 35.894 46.9725 35.9081 47.0512C35.894 47.1691 35.894 47.2609 35.894 47.3264C35.8658 47.4706 35.8517 47.5885 35.8234 47.6934C35.8093 47.7851 35.7952 47.8506 35.7811 47.89C35.7529 47.9817 35.7105 48.0734 35.6682 48.139C35.6117 48.2045 35.5412 48.2831 35.4565 48.3487C35.3718 48.4273 35.3012 48.4797 35.2307 48.5059C35.1601 48.5322 35.1178 48.5584 35.1037 48.5584C35.0331 48.5584 34.9625 48.5584 34.892 48.5715C34.8214 48.5715 34.765 48.5846 34.6944 48.5846C34.6379 48.5584 34.5815 48.519 34.5391 48.4404C34.4968 48.3618 34.4545 48.2569 34.4403 48.1259C34.4262 48.0079 34.4827 47.8506 34.6097 47.654C34.7367 47.4574 34.8496 47.3395 34.9766 47.3133C35.0331 47.2215 35.1037 47.1167 35.1883 46.9987C35.2307 46.9725 35.273 46.9332 35.3436 46.907C35.4 46.8808 35.4847 46.8677 35.5694 46.8546Z" fill="#ED1C24"/>
<path d="M43.0919 50.1966C42.8661 50.0918 42.4567 50.5636 42.2874 50.734C42.2309 50.7864 42.1745 50.8257 42.1322 50.8912C42.0898 50.9437 42.0334 50.9961 41.991 51.0354C41.9205 51.1009 41.8781 51.1403 41.8217 51.1796C41.7652 51.2058 41.7229 51.232 41.6805 51.232C41.5535 51.2582 41.3842 51.1665 41.1442 50.983C40.9184 50.7995 40.8055 50.6422 40.7773 50.5505C40.7632 50.4063 40.8902 50.0787 41.1866 49.5675C41.483 49.0695 41.61 48.6632 41.5676 48.3486C41.5535 48.2307 41.5112 48.1389 41.4688 48.0865C41.4124 48.0341 41.3418 48.0079 41.243 48.021C41.2007 48.021 41.1442 48.0865 41.0737 48.2045C41.0172 48.3224 40.9184 48.4797 40.8337 48.7156C40.6644 49.135 40.5233 49.4627 40.4104 49.6855C40.3116 49.8952 40.241 50.0131 40.1987 50.0393C39.9446 50.1311 39.7752 50.2359 39.6906 50.3539C39.62 50.4718 39.5777 50.6553 39.5777 50.9175V51.0878C39.5212 51.2713 39.4647 51.4417 39.3942 51.599C39.3377 51.7563 39.2672 51.8873 39.1966 52.0184C39.1825 52.0708 39.1684 52.097 39.1402 52.1232C39.1119 52.1494 39.0696 52.1756 39.0273 52.1756C38.999 52.1756 38.999 52.1756 38.9849 52.1756C38.9708 52.1625 38.9708 52.1494 38.9567 52.1232C38.9567 52.0839 38.9567 52.0053 38.9708 51.8742C38.9849 51.7562 39.0131 51.5728 39.0413 51.3631C39.0837 51.1271 39.126 50.9043 39.1543 50.6684C39.1825 50.4325 39.2248 50.2097 39.2672 49.9738C39.3095 49.6855 39.3519 49.4233 39.4224 49.2005C39.4789 48.9646 39.5353 48.7812 39.5918 48.6239C39.874 47.903 40.0716 47.3133 40.1845 46.8152C40.2974 46.3172 40.3398 45.9502 40.2974 45.6881C40.2551 45.4522 40.1986 45.2818 40.0857 45.1638C39.9869 45.0459 39.8458 45.0066 39.6764 45.0328C39.6482 45.0328 39.6059 45.0459 39.5918 45.0721C39.5636 45.0983 39.5353 45.1245 39.5212 45.1638C39.4506 45.3211 39.3942 45.4784 39.3377 45.6488C39.2813 45.8192 39.239 46.0026 39.2107 46.1861C39.2107 46.2517 39.1825 46.3041 39.1684 46.3565C39.1402 46.4089 39.126 46.4483 39.1119 46.4745C39.0837 46.54 39.0414 46.6842 38.9849 46.8808C38.9285 47.0774 38.8579 47.3264 38.7873 47.6409C38.7027 47.9686 38.6462 48.2438 38.6039 48.4404C38.5474 48.6501 38.5192 48.7943 38.5051 48.886C38.4345 48.9908 38.3639 49.135 38.2792 49.3185C38.2087 49.502 38.124 49.7248 38.0393 49.9869C37.9688 50.1704 37.9123 50.3408 37.8417 50.4981C37.757 50.6422 37.6724 50.7733 37.5595 50.8781C37.503 50.9437 37.4607 51.0092 37.4183 51.0485C37.376 51.1009 37.3478 51.1403 37.3337 51.1927C37.3196 51.2451 37.3054 51.2844 37.2913 51.3106C37.2772 51.3237 37.1219 51.4941 37.0655 51.5465C37.009 51.6121 36.9526 51.6776 36.8961 51.73C36.8115 51.8087 36.7409 51.8611 36.6704 51.9004C36.5998 51.9397 36.5151 51.9528 36.4445 51.9659C36.3881 51.9659 36.3316 51.9659 36.2752 51.9528C36.2328 51.9397 36.1905 51.9266 36.1764 51.8742C36.1482 51.848 36.1058 51.7694 36.0353 51.6121C35.9647 51.4548 35.9223 51.35 35.8659 51.2713C35.8376 51.1403 35.7953 51.0223 35.753 50.9043C35.7107 50.7733 35.6683 50.6684 35.6119 50.5374C35.5554 50.4063 35.4707 50.3146 35.3578 50.2621C35.2449 50.2097 35.1179 50.1835 34.9626 50.2097C34.9062 50.2228 34.8497 50.2359 34.8074 50.2753C34.7509 50.3146 34.7086 50.3539 34.6804 50.4325C34.5957 50.6029 34.4122 50.8126 34.1582 51.0747C33.9042 51.35 33.7348 51.5597 33.636 51.73L33.6219 51.7956C33.6219 51.7956 33.5372 51.9135 33.4808 51.9397C33.4384 51.9659 33.3961 51.9791 33.3396 51.9922C33.2691 52.0053 33.1985 51.9791 33.1279 51.9266C33.0574 51.8742 33.0009 51.7956 32.9304 51.6776C32.8316 51.4679 32.7186 51.2582 32.5916 51.0354C32.4928 50.9175 32.3941 50.8388 32.2953 50.7864C32.1824 50.734 32.0553 50.7209 31.9283 50.7471C31.8577 50.7471 31.7872 50.7733 31.7025 50.8257C31.6178 50.8781 31.519 50.9306 31.4061 50.9961C31.3214 51.0747 31.2368 51.1403 31.1662 51.2058C31.0956 51.2713 31.0392 51.3368 30.9827 51.3893C30.9545 51.4417 30.9263 51.481 30.9122 51.5072C30.898 51.5466 30.8698 51.5859 30.8557 51.599C30.7851 51.6645 30.7287 51.73 30.6722 51.8087C30.6158 51.8742 30.5876 51.9528 30.5593 52.0184C30.4747 52.1101 30.4041 52.1888 30.3335 52.2674C30.2771 52.346 30.2347 52.4116 30.2065 52.4771C30.1924 52.5033 30.1641 52.5295 30.15 52.5557C30.1359 52.5819 30.1218 52.595 30.0936 52.6081C30.0654 52.5819 30.0372 52.5557 30.0372 52.5295C30.0372 52.5033 30.0372 52.4771 30.0372 52.4378C30.0372 52.3984 30.0513 52.346 30.0654 52.2936C30.0936 52.2281 30.1077 52.1494 30.1359 52.0577C30.2347 51.6121 30.2912 51.2713 30.3194 50.9961C30.3618 50.734 30.3617 50.5505 30.3476 50.4587C30.3194 50.2884 30.263 50.1704 30.1783 50.0787C30.0936 50 29.9666 49.9738 29.8255 50C29.6702 50.0131 29.5291 50.0656 29.4021 50.1442C29.275 50.2228 29.1621 50.3408 29.0633 50.485C28.9504 50.6553 28.8375 50.7864 28.7528 50.9175C28.6682 51.0223 28.5976 51.1272 28.5411 51.2058C28.4141 51.3893 28.3012 51.5465 28.2024 51.6776C28.1036 51.8087 28.033 51.9266 27.9625 52.0053C27.8919 52.097 27.8214 52.1756 27.7649 52.2412C27.7085 52.3067 27.652 52.3591 27.6238 52.3984C27.5956 52.4509 27.5673 52.5033 27.5391 52.5295C27.5109 52.5688 27.4968 52.595 27.4826 52.6344V52.6475C27.4262 52.6868 27.3839 52.7392 27.3415 52.7916C27.2992 52.8441 27.2427 52.8965 27.2004 52.9358C27.1298 53.0013 27.0734 53.0538 27.031 53.08C26.9887 53.1062 26.9322 53.1324 26.8899 53.1324C26.7629 53.1586 26.5935 53.0669 26.3677 52.8834C26.1419 52.6999 26.0149 52.5557 26.0008 52.4509C25.9725 52.3067 26.1137 51.9791 26.41 51.4679C26.7064 50.9568 26.8335 50.5505 26.7911 50.249C26.777 50.1311 26.7346 50.0393 26.6923 49.9869C26.6358 49.9345 26.5653 49.9083 26.4665 49.9214C26.4242 49.9345 26.3677 49.9869 26.2972 50.1049C26.2266 50.2228 26.1419 50.3932 26.0431 50.616C25.8737 51.0485 25.7326 51.3631 25.6338 51.5859C25.5209 51.8087 25.4503 51.9266 25.4221 51.9397C25.1681 52.0315 24.9987 52.1363 24.9141 52.2543C24.8294 52.3722 24.8011 52.5557 24.8011 52.8178V52.9882C24.7447 53.1717 24.6882 53.3421 24.6177 53.4994C24.5612 53.6566 24.4907 53.7877 24.4201 53.9188C24.406 53.9581 24.3918 54.0105 24.3636 54.0367C24.3354 54.0629 24.3072 54.076 24.2648 54.0891C24.2507 54.0891 24.2225 54.0891 24.2225 54.076C24.2084 54.0629 24.1943 54.0498 24.1943 54.0236C24.1943 53.9843 24.1943 53.9057 24.2084 53.7746C24.2225 53.6566 24.2507 53.4863 24.2931 53.2766C24.3354 53.0538 24.3636 52.8179 24.406 52.5819C24.4342 52.3591 24.4765 52.1232 24.5189 51.9004C24.5753 51.6121 24.6177 51.35 24.6741 51.114C24.7306 50.8912 24.787 50.6946 24.8435 50.5374C25.1257 49.8296 25.3092 49.2268 25.4362 48.7418C25.535 48.2438 25.5774 47.8637 25.535 47.6016C25.5068 47.3657 25.4362 47.1953 25.3374 47.0905C25.2387 46.9725 25.0975 46.9332 24.9281 46.9594C24.8999 46.9594 24.8717 46.9725 24.8294 47.0118C24.8011 47.038 24.787 47.0642 24.7588 47.1036C24.7023 47.2477 24.6459 47.4181 24.5753 47.5754C24.5189 47.7458 24.4765 47.9293 24.4483 48.1258C24.4483 48.1914 24.4201 48.2438 24.406 48.2962C24.3777 48.3355 24.3636 48.3749 24.3495 48.4011C24.3213 48.4797 24.2789 48.6108 24.2225 48.8205C24.166 49.0171 24.0955 49.2792 24.0249 49.5937C23.9402 49.9214 23.8697 50.1835 23.8273 50.3932C23.785 50.6029 23.7568 50.7602 23.7426 50.8388C23.6721 50.9437 23.6015 51.0878 23.5168 51.2713C23.4463 51.4548 23.3616 51.6776 23.2769 51.9397C23.2063 52.1232 23.1358 52.2936 23.0652 52.4509C22.9946 52.595 22.8959 52.7261 22.7971 52.831C22.7406 52.8965 22.6983 52.9489 22.6559 53.0013C22.6136 53.0538 22.5854 53.1062 22.5712 53.1455C22.5571 53.1979 22.543 53.2372 22.5289 53.2635C22.5148 53.2897 22.5007 53.3028 22.4866 53.3159C22.4584 53.3552 22.416 53.3945 22.3595 53.4207C22.3172 53.4469 22.289 53.4732 22.2608 53.4863C22.162 53.5649 22.0491 53.6173 21.9221 53.6829C21.795 53.7353 21.6398 53.7877 21.4845 53.8139C21.3857 53.8008 21.287 53.8008 21.2164 53.7877C21.1317 53.7746 21.0753 53.7484 21.0329 53.7353C20.9765 53.7091 20.92 53.6697 20.8777 53.6173C20.8353 53.5518 20.8071 53.4863 20.793 53.4076C20.7789 53.3552 20.793 53.3159 20.8071 53.2635C20.8212 53.2241 20.8495 53.1848 20.8636 53.1455C21.1741 52.7785 21.414 52.464 21.5833 52.1888C21.7527 51.9135 21.8515 51.6776 21.8797 51.481L21.9079 51.2844C21.922 51.1796 21.9362 51.114 21.9362 51.0747C21.9362 51.0223 21.9503 51.0092 21.9644 51.0485C21.9361 50.9568 21.9079 50.865 21.8797 50.7995C21.8515 50.7078 21.795 50.6291 21.7668 50.5767C21.7245 50.5112 21.6821 50.4718 21.6539 50.4456C21.6115 50.4063 21.541 50.3801 21.4704 50.367C21.3998 50.3539 21.3152 50.3539 21.2164 50.367C21.1458 50.3801 21.0752 50.3932 21.0188 50.4194C20.9482 50.4456 20.8918 50.4718 20.8494 50.485C20.793 50.5374 20.7506 50.5767 20.6942 50.6029C20.6518 50.6422 20.5954 50.6815 20.5672 50.7209C20.4825 50.8388 20.3978 50.9699 20.3131 51.0878C20.2285 51.2058 20.1438 51.3237 20.0732 51.4286C19.9885 51.599 19.9321 51.7562 19.8756 51.9004C19.8333 52.0315 19.7909 52.1494 19.7768 52.2412C19.7486 52.3329 19.7345 52.4247 19.7204 52.4902C19.7063 52.5688 19.6922 52.6344 19.6922 52.6999C19.6922 52.7785 19.6922 52.8572 19.6922 52.9358V53.1848C19.5793 53.2897 19.4946 53.3945 19.424 53.4863C19.3534 53.578 19.297 53.6829 19.2546 53.7615C19.0006 54.0236 18.8172 54.2071 18.676 54.3513C18.5349 54.4823 18.4502 54.561 18.422 54.561C18.3796 54.5741 18.3514 54.561 18.3232 54.5216C18.295 54.4954 18.2808 54.443 18.2667 54.3906C18.2526 54.312 18.2526 54.1678 18.2526 53.9712C18.2526 53.7615 18.2667 53.4863 18.2808 53.1455C18.3373 52.713 18.3796 52.3329 18.422 52.0315C18.4643 51.7169 18.5066 51.4548 18.549 51.2451C18.5631 51.1665 18.5631 51.1009 18.5631 51.0354C18.5772 50.983 18.5772 50.9175 18.5772 50.8781L19.0006 50.7471C19.0571 50.734 19.0712 50.6553 19.0853 50.5374C19.0853 50.4063 19.0712 50.2228 19.0289 49.9869C19.0147 49.9214 19.0147 49.8821 19.0006 49.8427C18.9865 49.8034 18.9583 49.7903 18.93 49.7772C18.9018 49.751 18.8736 49.7379 18.8595 49.7248C18.8454 49.7117 18.8313 49.6986 18.8172 49.6855C18.8172 49.6068 18.8313 49.4889 18.8736 49.3316C18.9159 49.1874 18.9159 49.0564 18.9159 48.9646C18.8877 48.8467 18.8454 48.768 18.7889 48.7156C18.7324 48.6632 18.6478 48.637 18.549 48.6632C18.3655 48.6894 18.2103 48.8991 18.0974 49.2923C17.9986 49.6855 17.8574 49.8952 17.7163 49.9214L17.5046 49.8952C17.4341 49.9083 17.3776 49.9345 17.3353 49.9476C17.2788 49.9607 17.2223 49.9738 17.18 50C17.1377 49.9869 17.0671 49.9869 16.9824 49.9869C16.8978 49.9869 16.799 50 16.686 50.0131C16.6296 50.0262 16.5731 50.0524 16.5026 50.0787C16.4179 50.0787 16.3332 50.0656 16.2203 50.0787C16.1215 50.0787 16.0086 50.0918 15.8816 50.1049C15.7687 50.118 15.684 50.1966 15.6417 50.3408C15.5993 50.4718 15.5993 50.6684 15.6417 50.9306C15.6417 50.9568 15.6699 50.9961 15.6981 51.0092C15.7263 51.0354 15.7687 51.0485 15.8251 51.0616C15.8534 51.0747 15.8957 51.0747 15.938 51.0878C15.9804 51.0878 16.0227 51.114 16.0651 51.1272C16.0933 51.1272 16.1639 51.114 16.2344 51.114C16.3191 51.1009 16.3756 51.1009 16.4038 51.1009L17.2082 51.0092C17.2365 51.0092 17.2788 50.9961 17.3353 50.9699C17.3917 50.9437 17.434 50.9437 17.4623 50.9306C17.4905 50.9175 17.5187 50.9306 17.5328 50.9437C17.547 50.9568 17.5611 50.9699 17.5611 50.9961C17.5187 51.1009 17.4905 51.1927 17.4623 51.2713C17.434 51.35 17.4058 51.4024 17.3776 51.4548C17.1659 51.9659 16.9401 52.4116 16.7143 52.8047C16.4743 53.1979 16.2344 53.5387 15.9663 53.8532C15.9239 53.9188 15.8816 53.9843 15.8534 54.0367C15.8252 54.0891 15.7969 54.1285 15.7687 54.1678L15.7546 54.2202C15.6981 54.2726 15.6276 54.3382 15.5711 54.4037C15.5147 54.4692 15.4441 54.5216 15.4017 54.5872C15.3312 54.6527 15.2465 54.7182 15.1759 54.7445C15.1054 54.7838 15.0207 54.7969 14.9501 54.81C14.8937 54.8231 14.8372 54.81 14.7808 54.81C14.7384 54.7969 14.6961 54.7707 14.682 54.7313C14.6538 54.7182 14.6114 54.6265 14.5408 54.4692C14.4703 54.3119 14.4279 54.2071 14.3856 54.1285C14.3574 54.0105 14.3009 53.8794 14.2586 53.7615C14.2162 53.6435 14.1598 53.5256 14.1175 53.4076C14.061 53.2766 13.9763 53.1717 13.8634 53.1193C13.7505 53.0669 13.6235 53.0538 13.4682 53.0669C13.4118 53.0669 13.3695 53.0931 13.313 53.1193C13.2566 53.1586 13.2142 53.211 13.186 53.2766C13.1013 53.4338 12.9319 53.6566 12.6638 53.9188C12.4097 54.194 12.2404 54.4037 12.1416 54.561V54.6265L12.1134 54.6658C12.0287 54.7576 11.9581 54.8362 11.8876 54.8886C11.817 54.9542 11.7605 55.0066 11.7182 55.0459C11.5347 55.1245 11.4077 55.1901 11.2948 55.2294C11.1819 55.2818 11.1254 55.2949 11.1113 55.2949C10.7867 55.3342 10.5327 55.2687 10.3351 55.0983C10.1375 54.9279 10.0105 54.6396 9.95406 54.2595C10.067 54.0498 10.1657 53.827 10.2645 53.5911C10.3351 53.4469 10.4057 53.3159 10.4762 53.211C10.5468 53.0931 10.5892 53.0144 10.6315 52.9358C10.6597 52.8441 10.6879 52.7785 10.7021 52.713C10.7162 52.6475 10.7444 52.595 10.7585 52.5557C10.8008 52.464 10.8432 52.3853 10.8855 52.3198C10.9137 52.2543 10.9561 52.2019 10.9702 52.1494C11.0125 52.0577 11.0408 51.9659 11.0549 51.9004C11.069 51.8349 11.0831 51.7694 11.0972 51.7169C11.1254 51.6383 11.1678 51.5728 11.196 51.5072C11.2243 51.4417 11.2525 51.3893 11.2807 51.35C11.323 51.1927 11.3512 51.0354 11.3795 50.8912C11.3936 50.7602 11.4218 50.6422 11.4359 50.5374C11.4783 50.4194 11.5065 50.3277 11.5206 50.2359C11.5347 50.1442 11.5629 50.0787 11.5629 50.0262L11.5489 49.9476C11.563 49.9083 11.5629 49.869 11.5629 49.8427C11.5488 49.751 11.5629 49.6331 11.5912 49.502C11.6194 49.3709 11.6194 49.2792 11.6194 49.2005C11.6194 49.135 11.6053 49.0302 11.6194 48.8991C11.6194 48.768 11.6194 48.6632 11.6053 48.5977C11.563 48.3486 11.5065 48.1914 11.3936 48.1127C11.2807 48.0341 11.1113 48.0079 10.8714 48.0472C10.7444 48.0603 10.6174 48.1652 10.4904 48.3355C10.3633 48.5059 10.2081 48.768 10.067 49.1088C9.95406 49.3578 9.85526 49.6068 9.77058 49.8427C9.6859 50.0787 9.62946 50.3146 9.57301 50.5243C9.53067 50.6553 9.50243 50.7733 9.46009 50.865C9.43187 50.9699 9.40365 51.0616 9.36131 51.1272C9.29074 51.5072 9.22017 51.8611 9.17783 52.1888C9.12138 52.5164 9.07904 52.8178 9.07904 53.0931L9.13548 53.1979C9.10726 53.2503 9.09314 53.3814 9.09314 53.5911C9.07902 53.8008 9.09314 53.9581 9.09314 54.0498C9.12136 54.076 9.12137 54.1154 9.13548 54.1678C9.13548 54.2071 9.14961 54.2333 9.14961 54.2595C9.14961 54.2726 9.13547 54.2988 9.12136 54.3119L8.75443 54.7182C8.69798 54.7838 8.65562 54.8624 8.62739 54.9279C8.59917 54.9935 8.57096 55.0459 8.54274 55.0852C8.5004 55.1245 8.45805 55.1638 8.42982 55.1901C8.4016 55.2163 8.35926 55.2294 8.33104 55.2294C8.30281 55.2294 8.27457 55.2294 8.24634 55.2032C8.21812 55.1901 8.18989 55.1507 8.17578 55.1114C8.204 55.059 8.24635 55.0066 8.28869 54.9148C8.33103 54.8231 8.35927 54.7313 8.37338 54.6003C8.40161 54.4823 8.4157 54.3775 8.4157 54.2988C8.42981 54.194 8.4157 54.1285 8.4157 54.0498C8.35924 53.696 8.24634 53.4469 8.06287 53.2897C7.87939 53.1324 7.63948 53.08 7.32899 53.1193C7.30076 53.1193 7.23021 53.1455 7.13142 53.1848C7.03262 53.2372 6.87738 53.3028 6.70802 53.3945L6.65155 53.3421C6.69389 53.2504 6.72214 53.1455 6.75037 53.0538C6.73625 53.0144 6.708 52.9882 6.65155 52.9751C6.60921 52.962 6.53864 52.962 6.43985 52.9751C6.35517 52.9882 6.28462 53.0144 6.21406 53.0538C6.14349 53.0931 6.08702 53.1455 6.01645 53.211C5.97411 53.2766 5.91766 53.3421 5.87532 53.4076C5.83298 53.4732 5.77655 53.5387 5.72009 53.6042C5.67776 53.6566 5.6213 53.7091 5.57896 53.7615C5.52251 53.8139 5.46604 53.8663 5.4237 53.9319C5.35314 53.9974 5.31082 54.0629 5.26848 54.1285C5.22614 54.194 5.1979 54.2464 5.18379 54.2988C5.16967 54.3119 5.15557 54.3251 5.12735 54.3513C5.15557 54.2857 5.16967 54.2333 5.18379 54.1678C5.26847 53.8532 5.28257 53.4732 5.21201 53.0407C5.16967 52.8047 5.11322 52.5819 5.04265 52.3984C4.97209 52.2019 4.88742 52.0184 4.77452 51.8611C4.68984 51.7169 4.56282 51.5728 4.42169 51.4286C4.26644 51.2713 4.08295 51.114 3.87125 50.9306C3.84303 50.9043 3.80069 50.8781 3.77247 50.8388C3.74424 50.8126 3.71601 50.7995 3.7019 50.7864C3.56077 50.6947 3.43375 50.616 3.34907 50.5505C3.26439 50.485 3.20795 50.4456 3.17972 50.4063C2.96802 50.3146 2.8269 50.2359 2.7281 50.1573C2.62931 50.0787 2.40348 49.9869 2.03654 49.8821C1.90952 49.8427 1.7825 49.8165 1.65549 49.7772C1.52847 49.7379 1.41555 49.7117 1.28853 49.6724L1.09096 49.6986C1.04862 49.6724 0.963925 49.6462 0.865133 49.6199C0.738114 49.633 0.55467 49.7903 0.328859 50.0787C0.0889341 50.367 -0.0239784 50.5636 0.00424799 50.6815C0.00424799 50.7078 0.0324537 50.7602 0.0889065 50.8257C0.145359 50.8912 0.244172 50.983 0.357078 51.1009C0.469984 51.232 0.568776 51.3368 0.639342 51.4286C0.709908 51.5072 0.76634 51.5859 0.794567 51.6383L0.709908 53.5649L0.780474 53.7746C0.766361 53.9057 0.766368 54.0367 0.752255 54.1416C0.752255 54.2464 0.738128 54.3382 0.738128 54.3906C0.752241 54.6134 0.752234 54.7838 0.766347 54.9017C0.766347 55.0197 0.766347 55.0983 0.766347 55.1245C0.752234 55.3604 0.752241 55.5964 0.738128 55.8323C0.738128 55.8716 0.76634 55.9371 0.794567 56.0157C0.822793 56.0944 0.836927 56.1599 0.85104 56.1992C0.879267 56.3565 0.780467 56.4876 0.596996 56.6055C0.399411 56.7235 0.314732 56.8021 0.314732 56.8545C0.314732 56.8939 0.342958 56.9332 0.385298 56.9725C0.427637 56.9987 0.484097 57.0249 0.568776 57.0511C0.625229 57.0773 0.681675 57.1036 0.738128 57.1167C0.79458 57.1429 0.851026 57.156 0.907479 57.1691L0.992172 57.5099C0.963946 57.7064 0.949812 57.8768 0.935699 58.0079C0.921585 58.1389 0.921585 58.2569 0.935699 58.3355C0.978038 58.6108 1.0345 59.1743 1.11918 59.3054C1.20386 59.4365 1.31678 59.4889 1.45791 59.4758C1.52848 59.4627 1.59905 59.4233 1.66961 59.3578C1.74018 59.2923 1.81073 59.2005 1.86718 59.0826C1.92364 58.9777 1.96598 58.8991 2.00832 58.8205C2.05066 58.7418 2.07887 58.2831 2.1071 58.2045C1.9942 58.1127 1.92362 58.021 1.85306 57.9424C1.7966 57.8637 1.75427 57.7851 1.75427 57.7195C1.74016 57.5361 1.72604 57.3395 1.71192 57.1429C1.6837 56.8414 1.6837 56.6842 1.71192 56.658C1.74015 56.6448 1.81073 56.6186 1.93775 56.6055C1.98009 56.6055 2.03654 56.5793 2.1071 56.5269C2.17767 56.4876 2.27648 56.4351 2.37527 56.3696C2.75633 56.1599 3.10914 55.9764 3.44786 55.8061C3.61721 55.7143 3.75836 55.6357 3.88538 55.5701C3.67368 55.8716 4.19585 56.0551 4.6757 55.6881C4.76038 55.6226 4.7886 55.5832 4.81683 55.5832C4.85917 55.5832 4.88741 55.5832 4.90152 55.5964C4.91564 55.6095 4.94387 55.6357 4.94387 55.6619C4.94387 55.6881 4.92976 55.7929 4.91565 55.9502C4.88742 56.1075 4.88741 56.2386 4.90152 56.3434C4.92975 56.5793 5.05676 56.7628 5.28257 56.9332C5.50838 57.1036 5.73421 57.156 5.97414 57.1298C6.01648 57.1167 6.05882 57.1036 6.11527 57.0905C6.18584 57.0642 6.21405 57.0511 6.24228 57.0511C6.31284 57.038 6.38342 57.0249 6.4681 56.9856C6.55278 56.9463 6.63746 56.8939 6.75037 56.8283C6.91972 56.7366 7.07494 56.6317 7.21607 56.5007C7.34309 56.3696 7.45601 56.2386 7.54068 56.0944C7.58302 56.173 7.6536 56.2254 7.72416 56.2648C7.79473 56.291 7.87941 56.3172 7.97821 56.291C8.06289 56.2779 8.14757 56.2517 8.23225 56.2123C8.30282 56.1599 8.40158 56.0944 8.48626 56.0157C8.55683 55.9502 8.62741 55.8847 8.68387 55.8192C8.75443 55.7536 8.81087 55.675 8.88144 55.6095C8.98023 55.5046 9.05081 55.426 9.10726 55.3342C9.16372 55.2556 9.22016 55.1901 9.27662 55.1245C9.31895 55.1507 9.34717 55.177 9.3754 55.2032C9.40363 55.2294 9.41776 55.2556 9.43187 55.2949C9.54478 55.6357 9.68589 55.8978 9.86936 56.042C10.0528 56.1992 10.2645 56.2648 10.5045 56.2386C10.575 56.2254 10.6879 56.2254 10.8291 56.2254C10.9702 56.2123 11.069 56.2123 11.1396 56.1992C11.2666 56.1861 11.3936 56.1337 11.5347 56.0682C11.6617 56.0026 11.7888 55.8978 11.9017 55.7798C12.0005 55.675 12.0992 55.5701 12.198 55.4653C12.2968 55.3473 12.3956 55.2556 12.4944 55.1376H12.4803C12.6214 54.9542 12.7344 54.81 12.8473 54.7051C12.9602 54.6003 13.0307 54.5479 13.1013 54.5479C13.1295 54.5479 13.1577 54.561 13.2142 54.6003C13.2565 54.6396 13.313 54.7051 13.3694 54.7838C13.4259 54.8362 13.4682 54.8755 13.5106 54.9279C13.5529 54.9673 13.5811 55.0066 13.6094 55.0328C13.8069 55.3867 13.9622 55.6095 14.0892 55.675C14.2162 55.7405 14.4703 55.7536 14.8655 55.7012C14.936 55.6881 15.0207 55.6619 15.1336 55.5832C15.2465 55.5046 15.3876 55.3998 15.5429 55.2687C15.684 55.1376 15.811 55.0328 15.9098 54.941C16.0086 54.8493 16.0933 54.7576 16.1497 54.692C16.178 54.6265 16.2203 54.5741 16.2344 54.5348C16.2627 54.4954 16.2768 54.4692 16.2909 54.443C16.4885 54.2071 16.6719 53.9843 16.8695 53.7746C16.9965 53.6435 17.0953 53.5125 17.18 53.3945C17.2647 53.2766 17.3352 53.1717 17.3776 53.0669L17.4341 53.0275C17.4764 53.0406 17.4905 53.0538 17.5046 53.08C17.4623 53.1979 17.4341 53.3028 17.4058 53.3945C17.4058 53.5518 17.4058 53.7091 17.3917 53.8663C17.3917 53.9581 17.3917 54.0367 17.3917 54.1154C17.3917 54.1809 17.3917 54.2333 17.3917 54.2726C17.3776 54.2988 17.3776 54.3251 17.3635 54.3644C17.3353 54.4692 17.3353 54.6134 17.3353 54.7838C17.3494 54.9542 17.3635 55.1507 17.4058 55.3735C17.4341 55.5832 17.5046 55.7274 17.6175 55.8192C17.7163 55.9109 17.8715 55.9502 18.055 55.924C18.1397 55.9109 18.2244 55.8847 18.3232 55.8192C18.4079 55.7667 18.5067 55.675 18.5913 55.557C18.6478 55.4784 18.7184 55.3867 18.7748 55.2949C18.8313 55.2032 18.9018 55.1114 18.9724 55.0328C19.0429 54.9541 19.0994 54.8755 19.1417 54.8231C19.1982 54.7576 19.2405 54.7051 19.2829 54.6527C19.3817 54.5741 19.4663 54.4954 19.5369 54.4299C19.6075 54.3644 19.6498 54.3119 19.6922 54.2464V54.2333C19.7345 54.1809 19.7769 54.1285 19.8051 54.0891C19.8474 54.0498 19.8756 54.0367 19.918 54.0367C19.9603 54.0236 20.0027 54.0498 20.045 54.0891C20.0873 54.1285 20.1297 54.1809 20.1861 54.2595C20.2567 54.3644 20.299 54.443 20.3555 54.5216C20.4119 54.6003 20.4543 54.6396 20.5107 54.6789C20.5954 54.7445 20.7083 54.7969 20.8494 54.8231C20.9765 54.8493 21.1176 54.8493 21.2728 54.8362C21.3857 54.8231 21.4986 54.7969 21.5833 54.7707C21.668 54.7444 21.7386 54.7051 21.795 54.6658C21.9644 54.6396 22.1337 54.561 22.3172 54.4299C22.5007 54.2857 22.6983 54.1023 22.91 53.8401C22.9664 53.7484 22.9947 53.6828 23.0088 53.6566C23.0229 53.6173 23.037 53.6042 23.0511 53.5911C23.1499 53.4469 23.2346 53.329 23.3051 53.2372C23.3757 53.1455 23.4322 53.0538 23.4886 52.9751L23.5451 53.0275C23.5592 53.0931 23.5592 53.1586 23.5451 53.2504C23.5451 53.3421 23.5309 53.4338 23.5168 53.5518C23.4745 53.8008 23.4463 54.0236 23.4463 54.2464C23.4463 54.4561 23.4604 54.6658 23.4886 54.8493C23.5168 55.0328 23.5733 55.1638 23.6862 55.2556C23.7709 55.3342 23.912 55.3604 24.0814 55.3473C24.1943 55.3342 24.2789 55.2818 24.3354 55.2032C24.406 55.1114 24.4624 55.0328 24.5047 54.9542C24.5471 54.8886 24.6035 54.8362 24.6459 54.7969C24.6882 54.7576 24.7165 54.7182 24.7306 54.6789C24.8011 54.5872 24.8576 54.4954 24.9141 54.3906C24.9705 54.2988 25.0411 54.2071 25.0975 54.1154C25.1963 53.9712 25.3092 53.8139 25.4504 53.6566C25.4645 53.6566 25.6479 53.7484 25.9866 53.9581C26.3254 54.1547 26.5653 54.2464 26.6923 54.2333C26.8193 54.2202 26.9322 54.1809 27.0451 54.1154C27.158 54.0498 27.271 53.945 27.3839 53.8139C27.4827 53.7222 27.5673 53.6173 27.652 53.5125C27.7367 53.4076 27.8355 53.3028 27.9202 53.1979L27.906 53.1848C27.9343 53.1455 27.9625 53.1062 27.9625 53.08C27.9766 53.0538 27.9907 53.0275 27.9907 53.0013C28.0613 52.9227 28.1177 52.8703 28.1601 52.8047C28.2024 52.7523 28.2448 52.6999 28.2871 52.6737C28.3153 52.6475 28.3577 52.6081 28.4141 52.5295C28.4847 52.4509 28.5552 52.346 28.6681 52.215C28.7528 52.097 28.8234 52.0184 28.8798 51.9659C28.9363 51.9004 28.9928 51.8742 29.0351 51.8742C29.0774 51.8742 29.1198 51.8742 29.1339 51.8873C29.1621 51.9004 29.1762 51.9135 29.1762 51.9528C29.1903 51.979 29.1903 52.0053 29.1762 52.0446C29.1762 52.0839 29.1621 52.1363 29.1621 52.1888C29.148 52.2412 29.1339 52.2936 29.1339 52.3198C29.1198 52.3591 29.1198 52.3853 29.1198 52.3984C29.0633 52.7392 29.021 53.0538 28.9645 53.3028C28.9222 53.5518 28.8799 53.7746 28.8375 53.945C28.8658 54.0498 28.894 54.1678 28.9363 54.2726C28.9645 54.3775 29.0633 54.4168 29.2327 54.4037C29.3174 54.3906 29.402 54.3775 29.4585 54.3513C29.5291 54.3251 29.5855 54.2857 29.6278 54.2333C29.6702 54.1809 29.7266 54.1285 29.769 54.076C29.8113 54.0105 29.8678 53.9581 29.9101 53.9057C30.0936 53.6697 30.2488 53.4732 30.3617 53.3028C30.4887 53.1324 30.5734 53.0013 30.6158 52.8965C30.6299 52.8441 30.6863 52.7916 30.7569 52.7392C30.8416 52.6868 30.9545 52.5688 31.1239 52.3984C31.2085 52.3067 31.2791 52.2412 31.3497 52.1756C31.4202 52.1232 31.4908 52.0708 31.5755 52.0446L31.6319 52.0577C31.7448 52.1625 31.8436 52.2412 31.9283 52.3198C32.013 52.3985 32.0836 52.4509 32.1541 52.5033C32.2388 52.6213 32.3094 52.713 32.3799 52.8047C32.4364 52.8703 32.4928 52.9227 32.5352 52.9489C32.6057 53.0275 32.6904 53.0669 32.7892 53.1062C32.888 53.1324 32.9727 53.1324 33.0856 53.1193C33.1703 53.1062 33.2549 53.08 33.3255 53.0407C33.4102 53.0013 33.4949 52.9227 33.5795 52.831C33.6501 52.7654 33.7066 52.6999 33.7771 52.6344C33.8477 52.5688 33.9042 52.5033 33.9747 52.4378C34.1159 52.2543 34.2288 52.097 34.3417 52.0053C34.4405 51.9004 34.5251 51.848 34.5957 51.8349C34.6239 51.8349 34.6521 51.848 34.7086 51.8873C34.7509 51.9266 34.8074 51.9922 34.878 52.0708C34.9203 52.1232 34.9767 52.1625 35.0191 52.215C35.0614 52.2543 35.0897 52.2805 35.1179 52.3198C35.3155 52.6868 35.4707 52.8965 35.5977 52.962C35.7248 53.0275 35.9788 53.0407 36.374 52.9882C36.4304 52.9751 36.5292 52.9358 36.6421 52.8572C36.755 52.7785 36.8962 52.6868 37.0514 52.5426C37.1925 52.4116 37.3195 52.3067 37.4183 52.215C37.5171 52.1232 37.6018 52.0315 37.6583 51.9659C37.7147 51.8742 37.743 51.8087 37.7571 51.7825C37.7712 51.7562 37.7853 51.73 37.7994 51.7038C37.8841 51.5597 37.9829 51.4548 38.0534 51.35C38.124 51.2582 38.1946 51.1665 38.2369 51.1009L38.2792 51.1534C38.2934 51.2058 38.2934 51.2844 38.2792 51.3762C38.2792 51.4679 38.2651 51.5597 38.251 51.6776C38.2087 51.9135 38.1805 52.1494 38.1805 52.3722C38.1805 52.5819 38.1805 52.7916 38.2228 52.9882C38.251 53.1717 38.3075 53.3028 38.4063 53.3814C38.505 53.46 38.6321 53.4863 38.8156 53.46C38.9285 53.4469 39.0131 53.4076 39.0696 53.3159C39.1261 53.2372 39.1966 53.1455 39.239 53.0669C39.2813 53.0013 39.3377 52.9489 39.3801 52.9096C39.4224 52.8703 39.4506 52.831 39.4647 52.7916C39.5353 52.6999 39.5918 52.6082 39.6482 52.5164C39.7047 52.4247 39.7611 52.3329 39.8317 52.2412C39.9305 52.0839 40.0434 51.9397 40.1845 51.7825C40.2128 51.7694 40.3821 51.8742 40.7208 52.0839C41.0596 52.2936 41.2854 52.3853 41.4265 52.3722C41.5535 52.346 41.6664 52.3067 41.7793 52.2412C41.8922 52.1756 42.0051 52.0839 42.118 51.9528C42.2168 51.848 42.3015 51.7431 42.3862 51.6383C42.4709 51.5334 42.5697 51.4286 42.6543 51.3237C42.6261 51.2451 43.3318 50.3015 43.0919 50.1966ZM3.68777 54.7838C3.64543 54.8362 3.56075 54.9017 3.47608 54.9935C3.40551 55.059 3.34908 55.1114 3.29263 55.1507C3.23618 55.2032 3.17971 55.2425 3.13737 55.2687C3.02447 55.3342 2.92568 55.3998 2.82689 55.4522C2.7281 55.5046 2.62931 55.5832 2.51641 55.6488C2.36116 55.7536 2.22002 55.8323 2.12123 55.8847C2.02244 55.9371 1.93774 55.9633 1.8954 55.9633C1.86718 55.9633 1.83897 55.9633 1.81074 55.9371C1.78252 55.924 1.7684 55.8847 1.7684 55.8454C1.74017 55.675 1.74016 55.4391 1.75427 55.1507C1.76838 54.8624 1.7966 54.5085 1.85306 54.0891L1.7684 53.8532C1.81074 53.7353 1.8672 53.3945 1.95188 52.831C2.03656 52.2674 2.06478 51.9528 2.05066 51.8742C2.02244 51.6383 1.71192 51.3237 1.1474 50.9043C1.1474 50.8781 1.14741 50.8519 1.16152 50.8519C1.17564 50.8388 1.18974 50.8257 1.21796 50.8257C1.37321 50.865 1.50023 50.9175 1.61314 50.9437C1.74016 50.983 1.83894 50.9961 1.92362 51.0223C1.98008 51.0616 2.02243 51.1009 2.07888 51.1272C2.12122 51.1665 2.17766 51.1927 2.20589 51.2058C2.5446 51.4024 2.81276 51.5859 3.02446 51.7431C3.22204 51.9004 3.3773 52.0446 3.46198 52.1494C3.49021 52.2019 3.53256 52.2543 3.5749 52.2936C3.60312 52.3198 3.64545 52.3591 3.67368 52.3722C3.70191 52.3984 3.73011 52.4247 3.75834 52.4509C3.78657 52.464 3.80069 52.4902 3.80069 52.5164L3.84303 52.6606C3.94182 52.8047 4.0124 52.962 4.06886 53.1062C4.12531 53.2504 4.16764 53.3945 4.19586 53.5387C4.22409 53.7877 4.2241 53.9974 4.13942 54.194C4.06886 54.3775 3.95595 54.5479 3.78659 54.692C3.77248 54.7051 3.73011 54.7313 3.68777 54.7838ZM7.51246 54.9542C7.51246 55.0328 7.49836 55.1114 7.48425 55.1638C7.47013 55.2163 7.45602 55.2556 7.41368 55.2818C7.37134 55.3604 7.31487 55.4391 7.25842 55.5177C7.14551 55.7405 7.00438 55.9109 6.86324 56.0289C6.708 56.1468 6.53865 56.2255 6.34106 56.2517C6.21404 56.2648 6.12936 56.2517 6.0588 56.1992C5.98823 56.1468 5.94591 56.0682 5.93179 55.9633C5.91768 55.8978 5.91768 55.8323 5.93179 55.7405C5.94591 55.6488 5.96001 55.5439 5.98823 55.4129C6.01646 55.2687 6.04468 55.1507 6.08702 55.0721C6.12936 54.9935 6.15759 54.9542 6.19993 54.941C6.2705 54.9148 6.32694 54.9017 6.36928 54.8624C6.41162 54.8362 6.46809 54.7838 6.49632 54.7313C6.55277 54.6134 6.60921 54.5085 6.65155 54.4037C6.67977 54.3382 6.72214 54.2857 6.75037 54.2464C6.79271 54.2071 6.8068 54.1809 6.83502 54.1678C6.97616 54.1678 7.07496 54.1678 7.15963 54.1678C7.2302 54.1809 7.28665 54.1809 7.30077 54.194C7.34311 54.2071 7.37134 54.2464 7.41368 54.3119C7.47013 54.3775 7.51245 54.4692 7.5689 54.5741L7.51246 54.9542ZM9.91171 52.9751C9.8976 52.9227 9.91172 52.8178 9.92584 52.6737C9.95406 52.5295 9.98226 52.346 10.0387 52.1101C10.0952 51.9528 10.1375 51.8087 10.194 51.6776C10.2222 51.5728 10.2646 51.481 10.2787 51.4024C10.2928 51.3369 10.3069 51.2844 10.2928 51.2582C10.2786 51.0878 10.3069 50.8912 10.3915 50.6815C10.4903 50.4718 10.6315 50.2621 10.8432 50.0131L10.8855 50.0262C10.8855 50.1049 10.8714 50.1835 10.8714 50.2621C10.8573 50.3408 10.8573 50.4194 10.8714 50.4981C10.8714 50.5898 10.8291 50.8388 10.7303 51.2189C10.6315 51.599 10.5609 51.8349 10.5045 51.9266C10.448 52.0577 10.3916 52.1888 10.3492 52.2936C10.2928 52.3985 10.2504 52.4771 10.2363 52.5557C10.1799 52.6999 10.1375 52.8047 10.0952 52.8834C10.0528 52.962 10.0105 53.0013 9.96815 53.0144L9.91171 52.9751ZM20.7507 52.3984C20.7224 52.4509 20.6942 52.4771 20.6519 52.4771C20.6095 52.4902 20.5954 52.4771 20.5813 52.4771C20.5672 52.464 20.5531 52.4509 20.5531 52.4247C20.5389 52.3198 20.5954 52.1363 20.7224 51.9004C20.8495 51.6514 20.9482 51.5203 21.047 51.5072C21.0752 51.5072 21.1035 51.5072 21.1176 51.5334C21.1317 51.5597 21.1458 51.5859 21.1458 51.6121C21.1599 51.6645 21.1458 51.73 21.1317 51.7825C21.1035 51.848 21.0894 51.9004 21.0329 51.9659C21.0047 52.0184 20.9624 52.0577 20.9341 52.1101C20.8918 52.1625 20.8636 52.215 20.8212 52.2543C20.8071 52.3067 20.7789 52.346 20.7507 52.3984Z" fill="#00426D"/>
<path fill-rule="evenodd" clip-rule="evenodd" d="M39.7338 5.13761C39.9313 4.70511 40.0301 4.22018 40.0301 3.72215C40.0301 1.66448 38.2236 0 36.0079 0C33.7921 0 31.9997 1.66448 31.9997 3.72215C31.9997 3.78768 31.9997 3.85321 32.0138 3.91874H7.69682C3.46286 3.91874 0.00512695 7.12975 0.00512695 11.0485V36.789C0.00512695 40.7077 3.46286 43.9187 7.69682 43.9187H35.4575C39.6773 43.9187 43.1491 40.7077 43.1491 36.789V11.0616C43.1491 8.59764 41.7802 6.42202 39.7338 5.13761Z" fill="#00426D"/>
<path fill-rule="evenodd" clip-rule="evenodd" d="M38.3639 15.9502V23.9187V31.9004V39.8689H33.6642V35.5963L33.3819 36.3827L33.0291 37.1559L32.6198 37.8768L32.1541 38.5321L31.9001 38.8204L31.6319 39.0825L31.0533 39.5019L30.7428 39.6592L30.4182 39.7903L30.0936 39.8558L29.7549 39.8689H24.9705L23.912 32.7785L26.2971 32.8309L27.031 32.8178L27.7649 32.7785L28.4988 32.6343L28.8516 32.5295L29.1621 32.3853L29.3032 32.228L29.4161 32.0314L29.5149 31.8479L29.5855 31.6382L29.6278 31.4023L29.6419 31.1533L29.6278 30.6291L29.529 30.0786L29.3597 29.515L29.1621 28.9384L28.9222 28.3879L26.1701 23.3027L28.3294 19.4364L28.6258 18.8073L28.8657 18.2569L29.0209 17.7588L29.1339 17.3132L29.1621 16.9069L29.148 16.5662L29.0915 16.2647L28.9786 16.0026L28.8234 15.7798L28.6258 15.5963L28.3858 15.4521L28.1036 15.3342L27.8072 15.2424L27.4826 15.19L27.1157 15.1507H26.7346H24.8293L24.8999 16.3171L24.914 17.4967L24.8717 18.6763L24.7588 19.8558L24.6176 21.0091L24.4201 22.1363L24.1801 23.1979L24.039 23.6959L23.912 24.1808L23.7426 24.692L23.5309 25.2031L23.0511 26.2778L22.7688 26.8414L22.4724 27.405L21.7668 28.5452L21.3998 29.135L21.0047 29.7116L20.1437 30.8781L19.2405 32.0183L18.7606 32.5819L18.2949 33.1455V39.8689H14.4702V36.0681L13.6375 39.8689H4.78857V31.9004V23.9187V15.9502V7.98163H9.48828L9.46006 20.3932L9.44593 32.8309H14.4702V24.6264V16.4351H18.2949V24.7837L18.676 24.1808L19.1276 23.4469L19.5792 22.6343L20.0167 21.7562L20.4119 20.8388L20.7365 19.9082L20.8776 19.4364L20.9623 18.9908L21.0188 18.5321L21.047 18.1127L21.0047 17.1428L20.8776 16.4482L20.7647 16.2123L20.6518 16.0157L20.5107 15.8584L20.3554 15.7536L19.9744 15.6487L19.5228 15.6225L18.4078 15.6618H13.3976L14.4702 8.02095H19.4804L19.9603 8.03405L20.4401 8.11269L20.8494 8.21754L21.2728 8.37481L21.6539 8.57141L22.0067 8.79421L22.3595 9.05633L22.6559 9.35778L22.9664 9.67232L23.2204 10.0524L23.6862 10.8388L23.8979 11.2844L24.0813 11.7431L24.2507 12.2149L24.3777 12.7261L25.0834 7.98163H28.9927L29.4585 8.00784L29.896 8.11269L30.2911 8.25686L30.6863 8.44034L31.0674 8.70247L31.4061 9.00391L31.7307 9.35778L32.013 9.75096L32.2952 10.1704L32.5351 10.6291L32.7327 11.1402L32.9021 11.6645L33.0432 12.2149L33.142 12.7916L33.2126 13.3945L33.2267 14.0105L33.1985 15.4128L33.0997 16.6448L32.9303 17.7719L32.8315 18.3224L32.7186 18.8335L32.4364 19.8558L32.1118 20.8781L31.3214 23.0799L31.8295 24.1808L32.4505 25.6094L33.0997 27.3001L33.4102 28.2175L33.6642 29.1743V18.5714V7.98163H38.3639V15.9502Z" fill="#EEF8FF"/>
<path fill-rule="evenodd" clip-rule="evenodd" d="M36.0069 6.89386C34.1299 6.89386 32.5916 5.46529 32.5916 3.72217C32.5916 1.97905 34.1299 0.550476 36.0069 0.550476C37.884 0.550476 39.4223 1.97905 39.4223 3.72217C39.4364 5.46529 37.8981 6.89386 36.0069 6.89386Z" fill="#ED1C24"/>
<path d="M54.1707 0H53.6768V60H54.1707V0Z" fill="#00426D"/>
<path d="M70.7679 40.3145L67.5924 36.92H67.0843V40.3145H64.6992V31.2975H67.0843V34.8755H67.4372L70.7396 31.2975H73.6046L69.4836 35.8191L73.901 40.3145H70.7679Z" fill="#00426D"/>
<path d="M81.2963 40.3145L80.6189 38.6763H76.5261L75.8487 40.3145H73.28L77.3446 31.2975H79.8004L83.8649 40.3145H81.2963ZM78.5725 33.8008L77.3446 36.7628H79.8285L78.5725 33.8008Z" fill="#00426D"/>
<path d="M95.2965 40.3145H92.982V35.8191L90.4416 40.3145H88.9738L86.4193 35.7929V40.3145H84.1047V31.2975H86.4475L89.7077 36.8807L92.9678 31.2975H95.2965V40.3145Z" fill="#00426D"/>
<path d="M101.182 31.2975C102.268 31.2975 103.143 31.5858 103.778 32.1494C104.428 32.713 104.738 33.4731 104.738 34.4036C104.738 35.3604 104.414 36.1206 103.75 36.6972C103.087 37.2739 102.198 37.5622 101.069 37.5622H98.7824V40.3276H96.3972V31.3106H101.182V31.2975ZM100.913 35.7012C101.379 35.7012 101.746 35.5832 102.014 35.3604C102.282 35.1245 102.409 34.823 102.409 34.443C102.409 34.076 102.268 33.7746 102 33.5517C101.732 33.3289 101.365 33.211 100.913 33.211H98.7965V35.7143H100.913V35.7012Z" fill="#00426D"/>
<path d="M114.124 36.2516C114.124 37.5491 113.728 38.5714 112.938 39.3578C112.148 40.131 111.103 40.5242 109.819 40.5242C108.492 40.5242 107.434 40.131 106.629 39.3578C105.825 38.5845 105.416 37.5491 105.416 36.2516V31.2975H107.801V36.2516C107.801 36.9331 107.984 37.4705 108.351 37.8768C108.718 38.27 109.212 38.4797 109.819 38.4797C110.398 38.4797 110.863 38.2831 111.216 37.8768C111.569 37.4836 111.738 36.9331 111.738 36.2516V31.2975H114.124V36.2516V36.2516Z" fill="#00426D"/>
<path d="M121.674 31.7825C122.394 32.2412 122.845 32.8834 123.029 33.696L120.686 34.1416C120.601 33.7353 120.39 33.4207 120.079 33.211C119.755 32.9882 119.402 32.8834 118.993 32.8834C118.611 32.8834 118.287 32.9751 118.047 33.1455C117.807 33.3159 117.68 33.5387 117.68 33.8008C117.68 34.194 117.948 34.443 118.47 34.561L120.489 34.9804C122.267 35.3473 123.156 36.2254 123.156 37.6016C123.156 38.5321 122.775 39.2399 122.013 39.751C121.251 40.2621 120.291 40.5243 119.162 40.5243C118.033 40.5243 117.073 40.2884 116.283 39.8034C115.492 39.3185 115.041 38.6501 114.914 37.7851L117.384 37.3395C117.609 38.2307 118.259 38.6763 119.303 38.6763C119.755 38.6763 120.093 38.5846 120.347 38.4142C120.601 38.2438 120.728 38.021 120.728 37.7458C120.728 37.5361 120.658 37.3657 120.531 37.2346C120.404 37.1036 120.164 37.0118 119.825 36.9463L117.793 36.54C116.057 36.173 115.182 35.2949 115.182 33.9319C115.182 33.0669 115.535 32.3722 116.24 31.8611C116.946 31.35 117.878 31.0878 119.021 31.0878C120.065 31.1009 120.954 31.3237 121.674 31.7825Z" fill="#00426D"/>
<path d="M131.723 33.2372V40.3145H129.352V33.2372H126.204V31.2975H134.87V33.2372H131.723Z" fill="#00426D"/>
<path d="M141.588 40.3145L140.91 38.6763H136.818L136.14 40.3145H133.572L137.636 31.2975H140.092L144.156 40.3145H141.588ZM138.864 33.8008L137.636 36.7628H140.12L138.864 33.8008Z" fill="#00426D"/>
<path d="M150.62 31.7825C151.34 32.2412 151.792 32.8834 151.975 33.696L149.632 34.1416C149.548 33.7353 149.336 33.4207 149.026 33.211C148.701 32.9882 148.348 32.8834 147.939 32.8834C147.558 32.8834 147.233 32.9751 146.993 33.1455C146.753 33.3159 146.626 33.5387 146.626 33.8008C146.626 34.194 146.894 34.443 147.417 34.561L149.435 34.9804C151.213 35.3473 152.102 36.2254 152.102 37.6016C152.102 38.5321 151.721 39.2399 150.959 39.751C150.197 40.2621 149.237 40.5243 148.108 40.5243C146.979 40.5243 146.019 40.2884 145.229 39.8034C144.439 39.3185 143.987 38.6501 143.86 37.7851L146.33 37.3395C146.556 38.2307 147.205 38.6763 148.249 38.6763C148.701 38.6763 149.04 38.5846 149.294 38.4142C149.548 38.2438 149.675 38.021 149.675 37.7458C149.675 37.5361 149.604 37.3657 149.477 37.2346C149.35 37.1036 149.11 37.0118 148.771 36.9463L146.739 36.54C145.003 36.173 144.128 35.2949 144.128 33.9319C144.128 33.0669 144.481 32.3722 145.187 31.8611C145.892 31.35 146.824 31.0878 147.967 31.0878C149.026 31.1009 149.915 31.3237 150.62 31.7825Z" fill="#00426D"/>
<path d="M155.306 31.2975H152.921V40.3145H155.306V31.2975Z" fill="#00426D"/>
<path d="M162.49 40.3145L159.314 36.92H158.806V40.3145H156.421V31.2975H158.806V34.8755H159.159L162.461 31.2975H165.326L161.205 35.8191L165.623 40.3145H162.49Z" fill="#00426D"/>
<path d="M177.04 40.3145H174.726V35.8191L172.185 40.3145H170.703L168.149 35.7929V40.3145H165.834V31.2975H168.191L171.451 36.8807L174.712 31.2975H177.04V40.3145Z" fill="#00426D"/>
<path d="M185.31 40.3145L184.633 38.6763H180.54L179.863 40.3145H177.294L181.359 31.2975H183.815L187.879 40.3145H185.31ZM182.587 33.8008L181.359 36.7628H183.843L182.587 33.8008Z" fill="#00426D"/>
<path d="M195.303 40.3145H188.119V31.2975H190.518V38.3748H195.303V40.3145Z" fill="#00426D"/>
<path d="M203.22 40.3145L202.543 38.6763H198.45L197.772 40.3145H195.204L199.269 31.2975H201.724L205.789 40.3145H203.22ZM200.496 33.8008L199.269 36.7628H201.752L200.496 33.8008Z" fill="#00426D"/>
<path d="M209.881 40.3145H207.454V37.5098L203.7 31.2975H206.311L208.696 35.2555L211.067 31.2975H213.734L209.881 37.4836V40.3145Z" fill="#00426D"/>
<path d="M219.676 40.3145L218.999 38.6763H214.906L214.229 40.3145H211.66L215.724 31.2975H218.18L222.245 40.3145H219.676ZM216.938 33.8008L215.71 36.7628H218.194L216.938 33.8008Z" fill="#00426D"/>
</svg>
